<?xml version="1.0" encoding="utf-8" standalone="no"?>
<!DOCTYPE svg PUBLIC "-//W3C//DTD SVG 1.1//EN"
  "http://www.w3.org/Graphics/SVG/1.1/DTD/svg11.dtd">
<svg xmlns:xlink="http://www.w3.org/1999/xlink" width="460.8pt" height="345.6pt" viewBox="0 0 460.8 345.6" xmlns="http://www.w3.org/2000/svg" version="1.1">
 <metadata>
  <rdf:RDF xmlns:dc="http://purl.org/dc/elements/1.1/" xmlns:cc="http://creativecommons.org/ns#" xmlns:rdf="http://www.w3.org/1999/02/22-rdf-syntax-ns#">
   <cc:Work>
    <dc:type rdf:resource="http://purl.org/dc/dcmitype/StillImage"/>
    <dc:date>2025-09-19T14:30:08.056233</dc:date>
    <dc:format>image/svg+xml</dc:format>
    <dc:creator>
     <cc:Agent>
      <dc:title>Matplotlib v3.10.6, https://matplotlib.org/</dc:title>
     </cc:Agent>
    </dc:creator>
   </cc:Work>
  </rdf:RDF>
 </metadata>
 <defs>
  <style type="text/css">*{stroke-linejoin: round; stroke-linecap: butt}</style>
 </defs>
 <g id="figure_1">
  <g id="patch_1">
   <path d="M 0 345.6 
L 460.8 345.6 
L 460.8 0 
L 0 0 
z
" style="fill: #ffffff"/>
  </g>
  <g id="axes_1">
   <g id="patch_2">
    <path d="M 49.88 301.912 
L 393.07 301.912 
L 393.07 10.8 
L 49.88 10.8 
z
" style="fill: #ffffff"/>
   </g>
   <g id="matplotlib.axis_1">
    <g id="xtick_1">
     <g id="line2d_1">
      <path d="M 96.678636 301.912 
L 96.678636 10.8 
" clip-path="url(#p6fd9a4aabd)" style="fill: none; stroke: #b0b0b0; stroke-width: 0.8; stroke-linecap: square"/>
     </g>
     <g id="line2d_2">
      <defs>
       <path id="m6de4b491f5" d="M 0 0 
L 0 3.5 
" style="stroke: #000000; stroke-width: 0.8"/>
      </defs>
      <g>
       <use xlink:href="#m6de4b491f5" x="96.678636" y="301.912" style="stroke: #000000; stroke-width: 0.8"/>
      </g>
     </g>
     <g id="text_1">
      <!-- −0.4 -->
      <g transform="translate(84.53723 316.510437) scale(0.1 -0.1)">
       <defs>
        <path id="DejaVuSans-2212" d="M 678 2272 
L 4684 2272 
L 4684 1741 
L 678 1741 
L 678 2272 
z
" transform="scale(0.015625)"/>
        <path id="DejaVuSans-30" d="M 2034 4250 
Q 1547 4250 1301 3770 
Q 1056 3291 1056 2328 
Q 1056 1369 1301 889 
Q 1547 409 2034 409 
Q 2525 409 2770 889 
Q 3016 1369 3016 2328 
Q 3016 3291 2770 3770 
Q 2525 4250 2034 4250 
z
M 2034 4750 
Q 2819 4750 3233 4129 
Q 3647 3509 3647 2328 
Q 3647 1150 3233 529 
Q 2819 -91 2034 -91 
Q 1250 -91 836 529 
Q 422 1150 422 2328 
Q 422 3509 836 4129 
Q 1250 4750 2034 4750 
z
" transform="scale(0.015625)"/>
        <path id="DejaVuSans-2e" d="M 684 794 
L 1344 794 
L 1344 0 
L 684 0 
L 684 794 
z
" transform="scale(0.015625)"/>
        <path id="DejaVuSans-34" d="M 2419 4116 
L 825 1625 
L 2419 1625 
L 2419 4116 
z
M 2253 4666 
L 3047 4666 
L 3047 1625 
L 3713 1625 
L 3713 1100 
L 3047 1100 
L 3047 0 
L 2419 0 
L 2419 1100 
L 313 1100 
L 313 1709 
L 2253 4666 
z
" transform="scale(0.015625)"/>
       </defs>
       <use xlink:href="#DejaVuSans-2212"/>
       <use xlink:href="#DejaVuSans-30" transform="translate(83.789062 0)"/>
       <use xlink:href="#DejaVuSans-2e" transform="translate(147.412109 0)"/>
       <use xlink:href="#DejaVuSans-34" transform="translate(179.199219 0)"/>
      </g>
     </g>
    </g>
    <g id="xtick_2">
     <g id="line2d_3">
      <path d="M 159.076818 301.912 
L 159.076818 10.8 
" clip-path="url(#p6fd9a4aabd)" style="fill: none; stroke: #b0b0b0; stroke-width: 0.8; stroke-linecap: square"/>
     </g>
     <g id="line2d_4">
      <g>
       <use xlink:href="#m6de4b491f5" x="159.076818" y="301.912" style="stroke: #000000; stroke-width: 0.8"/>
      </g>
     </g>
     <g id="text_2">
      <!-- −0.2 -->
      <g transform="translate(146.935412 316.510437) scale(0.1 -0.1)">
       <defs>
        <path id="DejaVuSans-32" d="M 1228 531 
L 3431 531 
L 3431 0 
L 469 0 
L 469 531 
Q 828 903 1448 1529 
Q 2069 2156 2228 2338 
Q 2531 2678 2651 2914 
Q 2772 3150 2772 3378 
Q 2772 3750 2511 3984 
Q 2250 4219 1831 4219 
Q 1534 4219 1204 4116 
Q 875 4013 500 3803 
L 500 4441 
Q 881 4594 1212 4672 
Q 1544 4750 1819 4750 
Q 2544 4750 2975 4387 
Q 3406 4025 3406 3419 
Q 3406 3131 3298 2873 
Q 3191 2616 2906 2266 
Q 2828 2175 2409 1742 
Q 1991 1309 1228 531 
z
" transform="scale(0.015625)"/>
       </defs>
       <use xlink:href="#DejaVuSans-2212"/>
       <use xlink:href="#DejaVuSans-30" transform="translate(83.789062 0)"/>
       <use xlink:href="#DejaVuSans-2e" transform="translate(147.412109 0)"/>
       <use xlink:href="#DejaVuSans-32" transform="translate(179.199219 0)"/>
      </g>
     </g>
    </g>
    <g id="xtick_3">
     <g id="line2d_5">
      <path d="M 221.475 301.912 
L 221.475 10.8 
" clip-path="url(#p6fd9a4aabd)" style="fill: none; stroke: #b0b0b0; stroke-width: 0.8; stroke-linecap: square"/>
     </g>
     <g id="line2d_6">
      <g>
       <use xlink:href="#m6de4b491f5" x="221.475" y="301.912" style="stroke: #000000; stroke-width: 0.8"/>
      </g>
     </g>
     <g id="text_3">
      <!-- 0.0 -->
      <g transform="translate(213.523438 316.510437) scale(0.1 -0.1)">
       <use xlink:href="#DejaVuSans-30"/>
       <use xlink:href="#DejaVuSans-2e" transform="translate(63.623047 0)"/>
       <use xlink:href="#DejaVuSans-30" transform="translate(95.410156 0)"/>
      </g>
     </g>
    </g>
    <g id="xtick_4">
     <g id="line2d_7">
      <path d="M 283.873182 301.912 
L 283.873182 10.8 
" clip-path="url(#p6fd9a4aabd)" style="fill: none; stroke: #b0b0b0; stroke-width: 0.8; stroke-linecap: square"/>
     </g>
     <g id="line2d_8">
      <g>
       <use xlink:href="#m6de4b491f5" x="283.873182" y="301.912" style="stroke: #000000; stroke-width: 0.8"/>
      </g>
     </g>
     <g id="text_4">
      <!-- 0.2 -->
      <g transform="translate(275.921619 316.510437) scale(0.1 -0.1)">
       <use xlink:href="#DejaVuSans-30"/>
       <use xlink:href="#DejaVuSans-2e" transform="translate(63.623047 0)"/>
       <use xlink:href="#DejaVuSans-32" transform="translate(95.410156 0)"/>
      </g>
     </g>
    </g>
    <g id="xtick_5">
     <g id="line2d_9">
      <path d="M 346.271364 301.912 
L 346.271364 10.8 
" clip-path="url(#p6fd9a4aabd)" style="fill: none; stroke: #b0b0b0; stroke-width: 0.8; stroke-linecap: square"/>
     </g>
     <g id="line2d_10">
      <g>
       <use xlink:href="#m6de4b491f5" x="346.271364" y="301.912" style="stroke: #000000; stroke-width: 0.8"/>
      </g>
     </g>
     <g id="text_5">
      <!-- 0.4 -->
      <g transform="translate(338.319801 316.510437) scale(0.1 -0.1)">
       <use xlink:href="#DejaVuSans-30"/>
       <use xlink:href="#DejaVuSans-2e" transform="translate(63.623047 0)"/>
       <use xlink:href="#DejaVuSans-34" transform="translate(95.410156 0)"/>
      </g>
     </g>
    </g>
    <g id="text_6">
     <!-- $\Phi_{\mathrm{ext}}/\Phi_0$ -->
     <g transform="translate(203.725 330.188562) scale(0.1 -0.1)">
      <defs>
       <path id="DejaVuSans-3a6" d="M 2206 3644 
Q 1738 3578 1431 3306 
Q 1025 2947 1025 2328 
Q 1025 1713 1431 1353 
Q 1738 1081 2206 1016 
L 2206 3644 
z
M 2838 1016 
Q 3306 1081 3613 1353 
Q 4013 1713 4013 2328 
Q 4013 2947 3613 3306 
Q 3306 3578 2838 3644 
L 2838 1016 
z
M 2206 494 
Q 1444 563 950 981 
Q 359 1481 359 2328 
Q 359 3175 950 3678 
Q 1441 4100 2206 4169 
L 2206 4666 
L 2838 4666 
L 2838 4169 
Q 3600 4097 4091 3678 
Q 4678 3175 4678 2328 
Q 4678 1484 4091 981 
Q 3600 563 2838 491 
L 2838 0 
L 2206 0 
L 2206 494 
z
" transform="scale(0.015625)"/>
       <path id="DejaVuSans-65" d="M 3597 1894 
L 3597 1613 
L 953 1613 
Q 991 1019 1311 708 
Q 1631 397 2203 397 
Q 2534 397 2845 478 
Q 3156 559 3463 722 
L 3463 178 
Q 3153 47 2828 -22 
Q 2503 -91 2169 -91 
Q 1331 -91 842 396 
Q 353 884 353 1716 
Q 353 2575 817 3079 
Q 1281 3584 2069 3584 
Q 2775 3584 3186 3129 
Q 3597 2675 3597 1894 
z
M 3022 2063 
Q 3016 2534 2758 2815 
Q 2500 3097 2075 3097 
Q 1594 3097 1305 2825 
Q 1016 2553 972 2059 
L 3022 2063 
z
" transform="scale(0.015625)"/>
       <path id="DejaVuSans-78" d="M 3513 3500 
L 2247 1797 
L 3578 0 
L 2900 0 
L 1881 1375 
L 863 0 
L 184 0 
L 1544 1831 
L 300 3500 
L 978 3500 
L 1906 2253 
L 2834 3500 
L 3513 3500 
z
" transform="scale(0.015625)"/>
       <path id="DejaVuSans-74" d="M 1172 4494 
L 1172 3500 
L 2356 3500 
L 2356 3053 
L 1172 3053 
L 1172 1153 
Q 1172 725 1289 603 
Q 1406 481 1766 481 
L 2356 481 
L 2356 0 
L 1766 0 
Q 1100 0 847 248 
Q 594 497 594 1153 
L 594 3053 
L 172 3053 
L 172 3500 
L 594 3500 
L 594 4494 
L 1172 4494 
z
" transform="scale(0.015625)"/>
       <path id="DejaVuSans-2f" d="M 1625 4666 
L 2156 4666 
L 531 -594 
L 0 -594 
L 1625 4666 
z
" transform="scale(0.015625)"/>
      </defs>
      <use xlink:href="#DejaVuSans-3a6" transform="translate(0 0.09375)"/>
      <use xlink:href="#DejaVuSans-65" transform="translate(79.667969 -16.3125) scale(0.7)"/>
      <use xlink:href="#DejaVuSans-78" transform="translate(122.734375 -16.3125) scale(0.7)"/>
      <use xlink:href="#DejaVuSans-74" transform="translate(164.160156 -16.3125) scale(0.7)"/>
      <use xlink:href="#DejaVuSans-2f" transform="translate(194.34082 0.09375)"/>
      <use xlink:href="#DejaVuSans-3a6" transform="translate(228.032227 0.09375)"/>
      <use xlink:href="#DejaVuSans-30" transform="translate(307.700195 -16.3125) scale(0.7)"/>
     </g>
    </g>
   </g>
   <g id="matplotlib.axis_2">
    <g id="ytick_1">
     <g id="line2d_11">
      <path d="M 49.88 288.679636 
L 393.07 288.679636 
" clip-path="url(#p6fd9a4aabd)" style="fill: none; stroke: #b0b0b0; stroke-width: 0.8; stroke-linecap: square"/>
     </g>
     <g id="line2d_12">
      <defs>
       <path id="m685e32c645" d="M 0 0 
L -3.5 0 
" style="stroke: #000000; stroke-width: 0.8"/>
      </defs>
      <g>
       <use xlink:href="#m685e32c645" x="49.88" y="288.679636" style="stroke: #000000; stroke-width: 0.8"/>
      </g>
     </g>
     <g id="text_7">
      <!-- 0.0 -->
      <g transform="translate(26.976875 292.478855) scale(0.1 -0.1)">
       <use xlink:href="#DejaVuSans-30"/>
       <use xlink:href="#DejaVuSans-2e" transform="translate(63.623047 0)"/>
       <use xlink:href="#DejaVuSans-30" transform="translate(95.410156 0)"/>
      </g>
     </g>
    </g>
    <g id="ytick_2">
     <g id="line2d_13">
      <path d="M 49.88 231.919177 
L 393.07 231.919177 
" clip-path="url(#p6fd9a4aabd)" style="fill: none; stroke: #b0b0b0; stroke-width: 0.8; stroke-linecap: square"/>
     </g>
     <g id="line2d_14">
      <g>
       <use xlink:href="#m685e32c645" x="49.88" y="231.919177" style="stroke: #000000; stroke-width: 0.8"/>
      </g>
     </g>
     <g id="text_8">
      <!-- 0.1 -->
      <g transform="translate(26.976875 235.718396) scale(0.1 -0.1)">
       <defs>
        <path id="DejaVuSans-31" d="M 794 531 
L 1825 531 
L 1825 4091 
L 703 3866 
L 703 4441 
L 1819 4666 
L 2450 4666 
L 2450 531 
L 3481 531 
L 3481 0 
L 794 0 
L 794 531 
z
" transform="scale(0.015625)"/>
       </defs>
       <use xlink:href="#DejaVuSans-30"/>
       <use xlink:href="#DejaVuSans-2e" transform="translate(63.623047 0)"/>
       <use xlink:href="#DejaVuSans-31" transform="translate(95.410156 0)"/>
      </g>
     </g>
    </g>
    <g id="ytick_3">
     <g id="line2d_15">
      <path d="M 49.88 175.158718 
L 393.07 175.158718 
" clip-path="url(#p6fd9a4aabd)" style="fill: none; stroke: #b0b0b0; stroke-width: 0.8; stroke-linecap: square"/>
     </g>
     <g id="line2d_16">
      <g>
       <use xlink:href="#m685e32c645" x="49.88" y="175.158718" style="stroke: #000000; stroke-width: 0.8"/>
      </g>
     </g>
     <g id="text_9">
      <!-- 0.2 -->
      <g transform="translate(26.976875 178.957937) scale(0.1 -0.1)">
       <use xlink:href="#DejaVuSans-30"/>
       <use xlink:href="#DejaVuSans-2e" transform="translate(63.623047 0)"/>
       <use xlink:href="#DejaVuSans-32" transform="translate(95.410156 0)"/>
      </g>
     </g>
    </g>
    <g id="ytick_4">
     <g id="line2d_17">
      <path d="M 49.88 118.398259 
L 393.07 118.398259 
" clip-path="url(#p6fd9a4aabd)" style="fill: none; stroke: #b0b0b0; stroke-width: 0.8; stroke-linecap: square"/>
     </g>
     <g id="line2d_18">
      <g>
       <use xlink:href="#m685e32c645" x="49.88" y="118.398259" style="stroke: #000000; stroke-width: 0.8"/>
      </g>
     </g>
     <g id="text_10">
      <!-- 0.3 -->
      <g transform="translate(26.976875 122.197477) scale(0.1 -0.1)">
       <defs>
        <path id="DejaVuSans-33" d="M 2597 2516 
Q 3050 2419 3304 2112 
Q 3559 1806 3559 1356 
Q 3559 666 3084 287 
Q 2609 -91 1734 -91 
Q 1441 -91 1130 -33 
Q 819 25 488 141 
L 488 750 
Q 750 597 1062 519 
Q 1375 441 1716 441 
Q 2309 441 2620 675 
Q 2931 909 2931 1356 
Q 2931 1769 2642 2001 
Q 2353 2234 1838 2234 
L 1294 2234 
L 1294 2753 
L 1863 2753 
Q 2328 2753 2575 2939 
Q 2822 3125 2822 3475 
Q 2822 3834 2567 4026 
Q 2313 4219 1838 4219 
Q 1578 4219 1281 4162 
Q 984 4106 628 3988 
L 628 4550 
Q 988 4650 1302 4700 
Q 1616 4750 1894 4750 
Q 2613 4750 3031 4423 
Q 3450 4097 3450 3541 
Q 3450 3153 3228 2886 
Q 3006 2619 2597 2516 
z
" transform="scale(0.015625)"/>
       </defs>
       <use xlink:href="#DejaVuSans-30"/>
       <use xlink:href="#DejaVuSans-2e" transform="translate(63.623047 0)"/>
       <use xlink:href="#DejaVuSans-33" transform="translate(95.410156 0)"/>
      </g>
     </g>
    </g>
    <g id="ytick_5">
     <g id="line2d_19">
      <path d="M 49.88 61.637799 
L 393.07 61.637799 
" clip-path="url(#p6fd9a4aabd)" style="fill: none; stroke: #b0b0b0; stroke-width: 0.8; stroke-linecap: square"/>
     </g>
     <g id="line2d_20">
      <g>
       <use xlink:href="#m685e32c645" x="49.88" y="61.637799" style="stroke: #000000; stroke-width: 0.8"/>
      </g>
     </g>
     <g id="text_11">
      <!-- 0.4 -->
      <g transform="translate(26.976875 65.437018) scale(0.1 -0.1)">
       <use xlink:href="#DejaVuSans-30"/>
       <use xlink:href="#DejaVuSans-2e" transform="translate(63.623047 0)"/>
       <use xlink:href="#DejaVuSans-34" transform="translate(95.410156 0)"/>
      </g>
     </g>
    </g>
    <g id="text_12">
     <!-- $\langle n \rangle$ -->
     <g transform="translate(20.897188 163.456) rotate(-90) scale(0.1 -0.1)">
      <defs>
       <path id="DejaVuSans-27e8" d="M 572 2006 
L 1453 4856 
L 1984 4856 
L 1103 2006 
L 1984 -844 
L 1453 -844 
L 572 2006 
z
" transform="scale(0.015625)"/>
       <path id="DejaVuSans-Oblique-6e" d="M 3566 2113 
L 3156 0 
L 2578 0 
L 2988 2091 
Q 3016 2238 3031 2350 
Q 3047 2463 3047 2528 
Q 3047 2791 2881 2937 
Q 2716 3084 2419 3084 
Q 1956 3084 1622 2776 
Q 1288 2469 1184 1941 
L 800 0 
L 225 0 
L 903 3500 
L 1478 3500 
L 1363 2950 
Q 1603 3253 1940 3418 
Q 2278 3584 2650 3584 
Q 3113 3584 3367 3334 
Q 3622 3084 3622 2631 
Q 3622 2519 3608 2391 
Q 3594 2263 3566 2113 
z
" transform="scale(0.015625)"/>
       <path id="DejaVuSans-27e9" d="M 1925 2006 
L 1044 -844 
L 513 -844 
L 1394 2006 
L 513 4856 
L 1044 4856 
L 1925 2006 
z
" transform="scale(0.015625)"/>
      </defs>
      <use xlink:href="#DejaVuSans-27e8" transform="translate(0 0.125)"/>
      <use xlink:href="#DejaVuSans-Oblique-6e" transform="translate(39.013672 0.125)"/>
      <use xlink:href="#DejaVuSans-27e9" transform="translate(102.392578 0.125)"/>
     </g>
    </g>
   </g>
   <g id="line2d_21">
    <path d="M 65.479545 288.679636 
L 68.630969 288.679636 
L 71.782392 288.679636 
L 74.933815 288.679636 
L 78.085239 288.679636 
L 81.236662 288.679636 
L 84.388085 288.679636 
L 87.539509 288.679636 
L 90.690932 288.679636 
L 93.842355 288.679636 
L 96.993779 288.679636 
L 100.145202 288.679636 
L 103.296625 288.679636 
L 106.448049 288.679636 
L 109.599472 288.679636 
L 112.750895 288.679636 
L 115.902319 288.679636 
L 119.053742 288.679636 
L 122.205165 288.679636 
L 125.356589 288.679636 
L 128.508012 288.679636 
L 131.659435 288.679636 
L 134.810859 288.679636 
L 137.962282 288.679636 
L 141.113705 288.679636 
L 144.265129 288.679636 
L 147.416552 288.679636 
L 150.567975 288.679636 
L 153.719399 288.679636 
L 156.870822 288.679636 
L 160.022245 288.679636 
L 163.173669 288.679636 
L 166.325092 288.679636 
L 169.476515 288.679636 
L 172.627938 288.679636 
L 175.779362 288.679636 
L 178.930785 288.679636 
L 182.082208 288.679636 
L 185.233632 288.679636 
L 188.385055 288.679636 
L 191.536478 288.679636 
L 194.687902 288.679636 
L 197.839325 288.679636 
L 200.990748 288.679636 
L 204.142172 288.679636 
L 207.293595 288.679636 
L 210.445018 288.679636 
L 213.596442 288.679636 
L 216.747865 288.679636 
L 219.899288 288.679636 
L 223.050712 288.679636 
L 226.202135 288.679636 
L 229.353558 288.679636 
L 232.504982 288.679636 
L 235.656405 288.679636 
L 238.807828 288.679636 
L 241.959252 288.679636 
L 245.110675 288.679636 
L 248.262098 288.679636 
L 251.413522 288.679636 
L 254.564945 288.679636 
L 257.716368 288.679636 
L 260.867792 288.679636 
L 264.019215 288.679636 
L 267.170638 288.679636 
L 270.322062 288.679636 
L 273.473485 288.679636 
L 276.624908 288.679636 
L 279.776331 288.679636 
L 282.927755 288.679636 
L 286.079178 288.679636 
L 289.230601 288.679636 
L 292.382025 288.679636 
L 295.533448 288.679636 
L 298.684871 288.679636 
L 301.836295 288.679636 
L 304.987718 288.679636 
L 308.139141 288.679636 
L 311.290565 288.679636 
L 314.441988 288.679636 
L 317.593411 288.679636 
L 320.744835 288.679636 
L 323.896258 288.679636 
L 327.047681 288.679636 
L 330.199105 288.679636 
L 333.350528 288.679636 
L 336.501951 288.679636 
L 339.653375 288.679636 
L 342.804798 288.679636 
L 345.956221 288.679636 
L 349.107645 288.679636 
L 352.259068 288.679636 
L 355.410491 288.679636 
L 358.561915 288.679636 
L 361.713338 288.679636 
L 364.864761 288.679636 
L 368.016185 288.679636 
L 371.167608 288.679636 
L 374.319031 288.679636 
L 377.470455 288.679636 
" clip-path="url(#p6fd9a4aabd)" style="fill: none; stroke: #1f77b4; stroke-width: 1.5; stroke-linecap: square"/>
   </g>
   <g id="line2d_22">
    <path d="M 65.479545 262.962361 
L 68.630969 262.960084 
L 71.782392 262.95325 
L 74.933815 262.941852 
L 78.085239 262.925876 
L 81.236662 262.905304 
L 84.388085 262.880114 
L 87.539509 262.850276 
L 90.690932 262.815756 
L 93.842355 262.776514 
L 96.993779 262.732504 
L 100.145202 262.683675 
L 103.296625 262.629968 
L 106.448049 262.571319 
L 109.599472 262.507657 
L 112.750895 262.438904 
L 115.902319 262.364973 
L 119.053742 262.285771 
L 122.205165 262.201195 
L 125.356589 262.111133 
L 128.508012 262.015465 
L 131.659435 261.914059 
L 134.810859 261.80677 
L 137.962282 261.693444 
L 141.113705 261.573909 
L 144.265129 261.447979 
L 147.416552 261.315452 
L 150.567975 261.176104 
L 153.719399 261.029688 
L 156.870822 260.875932 
L 160.022245 260.714531 
L 163.173669 260.545143 
L 166.325092 260.367381 
L 169.476515 260.180802 
L 172.627938 259.984892 
L 175.779362 259.779045 
L 178.930785 259.562538 
L 182.082208 259.334484 
L 185.233632 259.09377 
L 188.385055 258.838958 
L 191.536478 258.568126 
L 194.687902 258.278593 
L 197.839325 257.966434 
L 200.990748 257.625552 
L 204.142172 257.245751 
L 207.293595 256.8083 
L 210.445018 256.274072 
L 213.596442 255.544321 
L 216.747865 254.275705 
L 219.899288 250.04543 
L 223.050712 250.04543 
L 226.202135 254.275705 
L 229.353558 255.544321 
L 232.504982 256.274072 
L 235.656405 256.8083 
L 238.807828 257.245751 
L 241.959252 257.625552 
L 245.110675 257.966434 
L 248.262098 258.278593 
L 251.413522 258.568126 
L 254.564945 258.838958 
L 257.716368 259.09377 
L 260.867792 259.334484 
L 264.019215 259.562538 
L 267.170638 259.779045 
L 270.322062 259.984892 
L 273.473485 260.180802 
L 276.624908 260.367381 
L 279.776331 260.545143 
L 282.927755 260.714531 
L 286.079178 260.875932 
L 289.230601 261.029688 
L 292.382025 261.176104 
L 295.533448 261.315452 
L 298.684871 261.447979 
L 301.836295 261.573909 
L 304.987718 261.693444 
L 308.139141 261.80677 
L 311.290565 261.914059 
L 314.441988 262.015465 
L 317.593411 262.111133 
L 320.744835 262.201195 
L 323.896258 262.285771 
L 327.047681 262.364973 
L 330.199105 262.438904 
L 333.350528 262.507657 
L 336.501951 262.571319 
L 339.653375 262.629968 
L 342.804798 262.683675 
L 345.956221 262.732504 
L 349.107645 262.776514 
L 352.259068 262.815756 
L 355.410491 262.850276 
L 358.561915 262.880114 
L 361.713338 262.905304 
L 364.864761 262.925876 
L 368.016185 262.941852 
L 371.167608 262.95325 
L 374.319031 262.960084 
L 377.470455 262.962361 
" clip-path="url(#p6fd9a4aabd)" style="fill: none; stroke: #ff7f0e; stroke-width: 1.5; stroke-linecap: square"/>
   </g>
   <g id="line2d_23">
    <path d="M 65.479545 288.679636 
L 68.630969 239.055159 
L 71.782392 200.735972 
L 74.933815 178.172275 
L 78.085239 169.618982 
L 81.236662 170.30069 
L 84.388085 175.49595 
L 87.539509 182.189098 
L 90.690932 188.93572 
L 93.842355 195.183299 
L 96.993779 200.783149 
L 100.145202 205.745984 
L 103.296625 210.136102 
L 106.448049 214.029043 
L 109.599472 217.496031 
L 112.750895 220.599243 
L 115.902319 223.391252 
L 119.053742 225.915955 
L 122.205165 228.209869 
L 125.356589 230.303404 
L 128.508012 232.221979 
L 131.659435 233.986946 
L 134.810859 235.616336 
L 137.962282 237.125469 
L 141.113705 238.527436 
L 144.265129 239.83349 
L 147.416552 241.053358 
L 150.567975 242.195497 
L 153.719399 243.267304 
L 156.870822 244.275282 
L 160.022245 245.225184 
L 163.173669 246.122132 
L 166.325092 246.970716 
L 169.476515 247.775087 
L 172.627938 248.539032 
L 175.779362 249.266054 
L 178.930785 249.959442 
L 182.082208 250.62236 
L 185.233632 251.257942 
L 188.385055 251.869425 
L 191.536478 252.460347 
L 194.687902 253.034853 
L 197.839325 253.598235 
L 200.990748 254.157959 
L 204.142172 254.725787 
L 207.293595 255.32274 
L 210.445018 255.992619 
L 213.596442 256.848267 
L 216.747865 258.304302 
L 219.899288 263.95617 
L 223.050712 263.95617 
L 226.202135 258.304302 
L 229.353558 256.848267 
L 232.504982 255.992619 
L 235.656405 255.32274 
L 238.807828 254.725787 
L 241.959252 254.157959 
L 245.110675 253.598235 
L 248.262098 253.034853 
L 251.413522 252.460347 
L 254.564945 251.869425 
L 257.716368 251.257942 
L 260.867792 250.62236 
L 264.019215 249.959442 
L 267.170638 249.266054 
L 270.322062 248.539032 
L 273.473485 247.775087 
L 276.624908 246.970716 
L 279.776331 246.122132 
L 282.927755 245.225184 
L 286.079178 244.275282 
L 289.230601 243.267304 
L 292.382025 242.195497 
L 295.533448 241.053358 
L 298.684871 239.83349 
L 301.836295 238.527436 
L 304.987718 237.125469 
L 308.139141 235.616336 
L 311.290565 233.986946 
L 314.441988 232.221979 
L 317.593411 230.303404 
L 320.744835 228.209869 
L 323.896258 225.915955 
L 327.047681 223.391252 
L 330.199105 220.599243 
L 333.350528 217.496031 
L 336.501951 214.029043 
L 339.653375 210.136102 
L 342.804798 205.745984 
L 345.956221 200.783149 
L 349.107645 195.183299 
L 352.259068 188.93572 
L 355.410491 182.189098 
L 358.561915 175.49595 
L 361.713338 170.30069 
L 364.864761 169.618982 
L 368.016185 178.172275 
L 371.167608 200.735972 
L 374.319031 239.055159 
L 377.470455 288.679636 
" clip-path="url(#p6fd9a4aabd)" style="fill: none; stroke: #2ca02c; stroke-width: 1.5; stroke-linecap: square"/>
   </g>
   <g id="line2d_24">
    <path d="M 65.479545 218.169196 
L 68.630969 236.586021 
L 71.782392 273.435184 
L 74.933815 263.798908 
L 78.085239 226.0208 
L 81.236662 193.793368 
L 84.388085 167.95187 
L 87.539509 147.662675 
L 90.690932 131.637 
L 93.842355 118.749557 
L 96.993779 108.166586 
L 100.145202 99.301513 
L 103.296625 91.744928 
L 106.448049 85.208102 
L 109.599472 79.483772 
L 112.750895 74.420101 
L 115.902319 69.903527 
L 119.053742 65.847394 
L 122.205165 62.184308 
L 125.356589 58.860916 
L 128.508012 55.834287 
L 131.659435 53.069355 
L 134.810859 50.537088 
L 137.962282 48.213153 
L 141.113705 46.076936 
L 144.265129 44.110803 
L 147.416552 42.299542 
L 150.567975 40.629935 
L 153.719399 39.090425 
L 156.870822 37.670851 
L 160.022245 36.362242 
L 163.173669 35.156647 
L 166.325092 34.046999 
L 169.476515 33.027004 
L 172.627938 32.091047 
L 175.779362 31.234113 
L 178.930785 30.451727 
L 182.082208 29.739895 
L 185.233632 29.09506 
L 188.385055 28.514057 
L 191.536478 27.994089 
L 194.687902 27.532688 
L 197.839325 27.127695 
L 200.990748 26.777239 
L 204.142172 26.479721 
L 207.293595 26.233792 
L 210.445018 26.038348 
L 213.596442 25.892518 
L 216.747865 25.795655 
L 219.899288 25.74733 
L 223.050712 25.74733 
L 226.202135 25.795655 
L 229.353558 25.892518 
L 232.504982 26.038348 
L 235.656405 26.233792 
L 238.807828 26.479721 
L 241.959252 26.777239 
L 245.110675 27.127695 
L 248.262098 27.532688 
L 251.413522 27.994089 
L 254.564945 28.514057 
L 257.716368 29.09506 
L 260.867792 29.739895 
L 264.019215 30.451727 
L 267.170638 31.234113 
L 270.322062 32.091047 
L 273.473485 33.027004 
L 276.624908 34.046999 
L 279.776331 35.156647 
L 282.927755 36.362242 
L 286.079178 37.670851 
L 289.230601 39.090425 
L 292.382025 40.629935 
L 295.533448 42.299542 
L 298.684871 44.110803 
L 301.836295 46.076936 
L 304.987718 48.213153 
L 308.139141 50.537088 
L 311.290565 53.069355 
L 314.441988 55.834287 
L 317.593411 58.860916 
L 320.744835 62.184308 
L 323.896258 65.847394 
L 327.047681 69.903527 
L 330.199105 74.420101 
L 333.350528 79.483772 
L 336.501951 85.208102 
L 339.653375 91.744928 
L 342.804798 99.301513 
L 345.956221 108.166586 
L 349.107645 118.749557 
L 352.259068 131.637 
L 355.410491 147.662675 
L 358.561915 167.95187 
L 361.713338 193.793368 
L 364.864761 226.0208 
L 368.016185 263.798908 
L 371.167608 273.435184 
L 374.319031 236.586021 
L 377.470455 218.169196 
" clip-path="url(#p6fd9a4aabd)" style="fill: none; stroke: #d62728; stroke-width: 1.5; stroke-linecap: square"/>
   </g>
   <g id="line2d_25">
    <path d="M 65.479545 288.679636 
L 68.630969 243.023818 
L 71.782392 219.602429 
L 74.933815 209.469347 
L 78.085239 204.973492 
L 81.236662 202.610873 
L 84.388085 200.809846 
L 87.539509 198.839438 
L 90.690932 196.345828 
L 93.842355 193.164252 
L 96.993779 189.255967 
L 100.145202 184.707027 
L 103.296625 179.752421 
L 106.448049 174.785093 
L 109.599472 170.30277 
L 112.750895 166.777454 
L 115.902319 164.508218 
L 119.053742 163.555012 
L 122.205165 163.784336 
L 125.356589 164.968599 
L 128.508012 166.870332 
L 131.659435 169.28622 
L 134.810859 172.059437 
L 137.962282 175.076041 
L 141.113705 178.256261 
L 144.265129 181.545769 
L 147.416552 184.90862 
L 150.567975 188.322022 
L 153.719399 191.772655 
L 156.870822 195.254123 
L 160.022245 198.765229 
L 163.173669 202.308809 
L 166.325092 205.890954 
L 169.476515 209.520499 
L 172.627938 213.208677 
L 175.779362 216.968879 
L 178.930785 220.816449 
L 182.082208 224.768467 
L 185.233632 228.843454 
L 188.385055 233.060915 
L 191.536478 237.440659 
L 194.687902 242.001789 
L 197.839325 246.761286 
L 200.990748 251.732154 
L 204.142172 256.921156 
L 207.293595 262.326333 
L 210.445018 267.934663 
L 213.596442 273.720424 
L 216.747865 279.644894 
L 219.899288 285.657903 
L 223.050712 285.657903 
L 226.202135 279.644894 
L 229.353558 273.720424 
L 232.504982 267.934663 
L 235.656405 262.326333 
L 238.807828 256.921156 
L 241.959252 251.732154 
L 245.110675 246.761286 
L 248.262098 242.001789 
L 251.413522 237.440659 
L 254.564945 233.060915 
L 257.716368 228.843454 
L 260.867792 224.768467 
L 264.019215 220.816449 
L 267.170638 216.968879 
L 270.322062 213.208677 
L 273.473485 209.520499 
L 276.624908 205.890954 
L 279.776331 202.308809 
L 282.927755 198.765229 
L 286.079178 195.254123 
L 289.230601 191.772655 
L 292.382025 188.322022 
L 295.533448 184.90862 
L 298.684871 181.545769 
L 301.836295 178.256261 
L 304.987718 175.076041 
L 308.139141 172.059437 
L 311.290565 169.28622 
L 314.441988 166.870332 
L 317.593411 164.968599 
L 320.744835 163.784336 
L 323.896258 163.555012 
L 327.047681 164.508218 
L 330.199105 166.777454 
L 333.350528 170.30277 
L 336.501951 174.785093 
L 339.653375 179.752421 
L 342.804798 184.707027 
L 345.956221 189.255967 
L 349.107645 193.164252 
L 352.259068 196.345828 
L 355.410491 198.839438 
L 358.561915 200.809846 
L 361.713338 202.610873 
L 364.864761 204.973492 
L 368.016185 209.469347 
L 371.167608 219.602429 
L 374.319031 243.023818 
L 377.470455 288.679636 
" clip-path="url(#p6fd9a4aabd)" style="fill: none; stroke: #9467bd; stroke-width: 1.5; stroke-linecap: square"/>
   </g>
   <g id="line2d_26">
    <path d="M 65.479545 288.679636 
L 68.630969 288.679636 
L 71.782392 288.679636 
L 74.933815 288.679636 
L 78.085239 288.679636 
L 81.236662 288.679636 
L 84.388085 288.679636 
L 87.539509 288.679636 
L 90.690932 288.679636 
L 93.842355 288.679636 
L 96.993779 288.679636 
L 100.145202 288.679636 
L 103.296625 288.679636 
L 106.448049 288.679636 
L 109.599472 288.679636 
L 112.750895 288.679636 
L 115.902319 288.679636 
L 119.053742 288.679636 
L 122.205165 288.679636 
L 125.356589 288.679636 
L 128.508012 288.679636 
L 131.659435 288.679636 
L 134.810859 288.679636 
L 137.962282 288.679636 
L 141.113705 288.679636 
L 144.265129 288.679636 
L 147.416552 288.679636 
L 150.567975 288.679636 
L 153.719399 288.679636 
L 156.870822 288.679636 
L 160.022245 288.679636 
L 163.173669 288.679636 
L 166.325092 288.679636 
L 169.476515 288.679636 
L 172.627938 288.679636 
L 175.779362 288.679636 
L 178.930785 288.679636 
L 182.082208 288.679636 
L 185.233632 288.679636 
L 188.385055 288.679636 
L 191.536478 288.679636 
L 194.687902 288.679636 
L 197.839325 288.679636 
L 200.990748 288.679636 
L 204.142172 288.679636 
L 207.293595 288.679636 
L 210.445018 288.679636 
L 213.596442 288.679636 
L 216.747865 288.679636 
L 219.899288 288.679636 
L 223.050712 288.679636 
L 226.202135 288.679636 
L 229.353558 288.679636 
L 232.504982 288.679636 
L 235.656405 288.679636 
L 238.807828 288.679636 
L 241.959252 288.679636 
L 245.110675 288.679636 
L 248.262098 288.679636 
L 251.413522 288.679636 
L 254.564945 288.679636 
L 257.716368 288.679636 
L 260.867792 288.679636 
L 264.019215 288.679636 
L 267.170638 288.679636 
L 270.322062 288.679636 
L 273.473485 288.679636 
L 276.624908 288.679636 
L 279.776331 288.679636 
L 282.927755 288.679636 
L 286.079178 288.679636 
L 289.230601 288.679636 
L 292.382025 288.679636 
L 295.533448 288.679636 
L 298.684871 288.679636 
L 301.836295 288.679636 
L 304.987718 288.679636 
L 308.139141 288.679636 
L 311.290565 288.679636 
L 314.441988 288.679636 
L 317.593411 288.679636 
L 320.744835 288.679636 
L 323.896258 288.679636 
L 327.047681 288.679636 
L 330.199105 288.679636 
L 333.350528 288.679636 
L 336.501951 288.679636 
L 339.653375 288.679636 
L 342.804798 288.679636 
L 345.956221 288.679636 
L 349.107645 288.679636 
L 352.259068 288.679636 
L 355.410491 288.679636 
L 358.561915 288.679636 
L 361.713338 288.679636 
L 364.864761 288.679636 
L 368.016185 288.679636 
L 371.167608 288.679636 
L 374.319031 288.679636 
L 377.470455 288.679636 
" clip-path="url(#p6fd9a4aabd)" style="fill: none; stroke: #8c564b; stroke-width: 1.5; stroke-linecap: square"/>
   </g>
   <g id="line2d_27">
    <path d="M 65.479545 24.032364 
L 68.630969 32.728011 
L 71.782392 56.029412 
L 74.933815 88.050174 
L 78.085239 122.413439 
L 81.236662 153.765546 
L 84.388085 179.483797 
L 87.539509 199.476371 
L 90.690932 214.758962 
L 93.842355 226.477816 
L 96.993779 235.571921 
L 100.145202 242.735382 
L 103.296625 248.464696 
L 106.448049 253.113415 
L 109.599472 256.935259 
L 112.750895 260.114671 
L 115.902319 262.787717 
L 119.053742 265.056285 
L 122.205165 266.997783 
L 125.356589 268.67182 
L 128.508012 270.124889 
L 131.659435 271.393676 
L 134.810859 272.50744 
L 137.962282 273.489749 
L 141.113705 274.359761 
L 144.265129 275.133175 
L 147.416552 275.822957 
L 150.567975 276.439887 
L 153.719399 276.99299 
L 156.870822 277.489859 
L 160.022245 277.936922 
L 163.173669 278.339642 
L 166.325092 278.702685 
L 169.476515 279.030047 
L 172.627938 279.325166 
L 175.779362 279.591004 
L 178.930785 279.830119 
L 182.082208 280.044724 
L 185.233632 280.236733 
L 188.385055 280.407802 
L 191.536478 280.559361 
L 194.687902 280.692642 
L 197.839325 280.808699 
L 200.990748 280.908431 
L 204.142172 280.992594 
L 207.293595 281.061816 
L 210.445018 281.116603 
L 213.596442 281.157354 
L 216.747865 281.184361 
L 219.899288 281.197817 
L 223.050712 281.197817 
L 226.202135 281.184361 
L 229.353558 281.157354 
L 232.504982 281.116603 
L 235.656405 281.061816 
L 238.807828 280.992594 
L 241.959252 280.908431 
L 245.110675 280.808699 
L 248.262098 280.692642 
L 251.413522 280.559361 
L 254.564945 280.407802 
L 257.716368 280.236733 
L 260.867792 280.044724 
L 264.019215 279.830119 
L 267.170638 279.591004 
L 270.322062 279.325166 
L 273.473485 279.030047 
L 276.624908 278.702685 
L 279.776331 278.339642 
L 282.927755 277.936922 
L 286.079178 277.489859 
L 289.230601 276.99299 
L 292.382025 276.439887 
L 295.533448 275.822957 
L 298.684871 275.133175 
L 301.836295 274.359761 
L 304.987718 273.489749 
L 308.139141 272.50744 
L 311.290565 271.393676 
L 314.441988 270.124889 
L 317.593411 268.67182 
L 320.744835 266.997783 
L 323.896258 265.056285 
L 327.047681 262.787717 
L 330.199105 260.114671 
L 333.350528 256.935259 
L 336.501951 253.113415 
L 339.653375 248.464696 
L 342.804798 242.735382 
L 345.956221 235.571921 
L 349.107645 226.477816 
L 352.259068 214.758962 
L 355.410491 199.476371 
L 358.561915 179.483797 
L 361.713338 153.765546 
L 364.864761 122.413439 
L 368.016185 88.050174 
L 371.167608 56.029412 
L 374.319031 32.728011 
L 377.470455 24.032364 
" clip-path="url(#p6fd9a4aabd)" style="fill: none; stroke: #e377c2; stroke-width: 1.5; stroke-linecap: square"/>
   </g>
   <g id="line2d_28">
    <path d="M 65.479545 288.679636 
L 68.630969 206.124617 
L 71.782392 151.887553 
L 74.933815 115.981179 
L 78.085239 92.701484 
L 81.236662 79.695274 
L 84.388085 74.153237 
L 87.539509 73.27531 
L 90.690932 75.047051 
L 93.842355 78.248106 
L 96.993779 82.189037 
L 100.145202 86.487502 
L 103.296625 90.930702 
L 106.448049 95.398933 
L 109.599472 99.824212 
L 112.750895 104.16782 
L 115.902319 108.407929 
L 119.053742 112.532654 
L 122.205165 116.536078 
L 125.356589 120.415921 
L 128.508012 124.172162 
L 131.659435 127.806198 
L 134.810859 131.320327 
L 137.962282 134.717425 
L 141.113705 138.000738 
L 144.265129 141.173752 
L 147.416552 144.240102 
L 150.567975 147.203518 
L 153.719399 150.067786 
L 156.870822 152.836727 
L 160.022245 155.514186 
L 163.173669 158.104031 
L 166.325092 160.610163 
L 169.476515 163.036537 
L 172.627938 165.387197 
L 175.779362 167.666328 
L 178.930785 169.878344 
L 182.082208 172.028008 
L 185.233632 174.120629 
L 188.385055 176.162371 
L 191.536478 178.160751 
L 194.687902 180.125505 
L 197.839325 182.070136 
L 200.990748 184.014911 
L 204.142172 185.993139 
L 207.293595 188.065897 
L 210.445018 190.362199 
L 213.596442 193.216545 
L 216.747865 197.860993 
L 219.899288 214.987269 
L 223.050712 214.987269 
L 226.202135 197.860993 
L 229.353558 193.216545 
L 232.504982 190.362199 
L 235.656405 188.065897 
L 238.807828 185.993139 
L 241.959252 184.014911 
L 245.110675 182.070136 
L 248.262098 180.125505 
L 251.413522 178.160751 
L 254.564945 176.162371 
L 257.716368 174.120629 
L 260.867792 172.028008 
L 264.019215 169.878344 
L 267.170638 167.666328 
L 270.322062 165.387197 
L 273.473485 163.036537 
L 276.624908 160.610163 
L 279.776331 158.104031 
L 282.927755 155.514186 
L 286.079178 152.836727 
L 289.230601 150.067786 
L 292.382025 147.203518 
L 295.533448 144.240102 
L 298.684871 141.173752 
L 301.836295 138.000738 
L 304.987718 134.717425 
L 308.139141 131.320327 
L 311.290565 127.806198 
L 314.441988 124.172162 
L 317.593411 120.415921 
L 320.744835 116.536078 
L 323.896258 112.532654 
L 327.047681 108.407929 
L 330.199105 104.16782 
L 333.350528 99.824212 
L 336.501951 95.398933 
L 339.653375 90.930702 
L 342.804798 86.487502 
L 345.956221 82.189037 
L 349.107645 78.248106 
L 352.259068 75.047051 
L 355.410491 73.27531 
L 358.561915 74.153237 
L 361.713338 79.695274 
L 364.864761 92.701484 
L 368.016185 115.981179 
L 371.167608 151.887553 
L 374.319031 206.124617 
L 377.470455 288.679636 
" clip-path="url(#p6fd9a4aabd)" style="fill: none; stroke: #7f7f7f; stroke-width: 1.5; stroke-linecap: square"/>
   </g>
   <g id="line2d_29">
    <path d="M 65.479545 164.057485 
L 68.630969 183.723501 
L 71.782392 216.441641 
L 74.933815 244.57867 
L 78.085239 267.209556 
L 81.236662 285.924938 
L 84.388085 275.176746 
L 87.539509 260.294897 
L 90.690932 245.99991 
L 93.842355 231.712483 
L 96.993779 217.027471 
L 100.145202 201.729367 
L 103.296625 185.845424 
L 106.448049 169.695612 
L 109.599472 153.867258 
L 112.750895 139.06081 
L 115.902319 125.857417 
L 119.053742 114.552154 
L 122.205165 105.143805 
L 125.356589 97.437262 
L 128.508012 91.161588 
L 131.659435 86.048777 
L 134.810859 81.869284 
L 137.962282 78.440306 
L 141.113705 75.62166 
L 144.265129 73.307908 
L 147.416552 71.420546 
L 150.567975 69.901546 
L 153.719399 68.708426 
L 156.870822 67.810647 
L 160.022245 67.187033 
L 163.173669 66.82397 
L 166.325092 66.714174 
L 169.476515 66.85586 
L 172.627938 67.252214 
L 175.779362 67.911044 
L 178.930785 68.844534 
L 182.082208 70.068997 
L 185.233632 71.604476 
L 188.385055 73.474036 
L 191.536478 75.702419 
L 194.687902 78.313652 
L 197.839325 81.326819 
L 200.990748 84.748633 
L 204.142172 88.559847 
L 207.293595 92.687834 
L 210.445018 96.940959 
L 213.596442 100.804665 
L 216.747865 102.501409 
L 219.899288 89.677782 
L 223.050712 89.677782 
L 226.202135 102.501409 
L 229.353558 100.804665 
L 232.504982 96.940959 
L 235.656405 92.687834 
L 238.807828 88.559847 
L 241.959252 84.748633 
L 245.110675 81.326819 
L 248.262098 78.313652 
L 251.413522 75.702419 
L 254.564945 73.474036 
L 257.716368 71.604476 
L 260.867792 70.068997 
L 264.019215 68.844534 
L 267.170638 67.911044 
L 270.322062 67.252214 
L 273.473485 66.85586 
L 276.624908 66.714174 
L 279.776331 66.82397 
L 282.927755 67.187033 
L 286.079178 67.810647 
L 289.230601 68.708426 
L 292.382025 69.901546 
L 295.533448 71.420546 
L 298.684871 73.307908 
L 301.836295 75.62166 
L 304.987718 78.440306 
L 308.139141 81.869284 
L 311.290565 86.048777 
L 314.441988 91.161588 
L 317.593411 97.437262 
L 320.744835 105.143805 
L 323.896258 114.552154 
L 327.047681 125.857417 
L 330.199105 139.06081 
L 333.350528 153.867258 
L 336.501951 169.695612 
L 339.653375 185.845424 
L 342.804798 201.729367 
L 345.956221 217.027471 
L 349.107645 231.712483 
L 352.259068 245.99991 
L 355.410491 260.294897 
L 358.561915 275.176746 
L 361.713338 285.924938 
L 364.864761 267.209556 
L 368.016185 244.57867 
L 371.167608 216.441641 
L 374.319031 183.723501 
L 377.470455 164.057485 
" clip-path="url(#p6fd9a4aabd)" style="fill: none; stroke: #bcbd22; stroke-width: 1.5; stroke-linecap: square"/>
   </g>
   <g id="line2d_30">
    <path d="M 65.479545 288.679636 
L 68.630969 288.679636 
L 71.782392 288.679636 
L 74.933815 288.679636 
L 78.085239 288.679636 
L 81.236662 288.679636 
L 84.388085 288.679636 
L 87.539509 288.679636 
L 90.690932 288.679636 
L 93.842355 288.679636 
L 96.993779 288.679636 
L 100.145202 288.679636 
L 103.296625 288.679636 
L 106.448049 288.679636 
L 109.599472 288.679636 
L 112.750895 288.679636 
L 115.902319 288.679636 
L 119.053742 288.679636 
L 122.205165 288.679636 
L 125.356589 288.679636 
L 128.508012 288.679636 
L 131.659435 288.679636 
L 134.810859 288.679636 
L 137.962282 288.679636 
L 141.113705 288.679636 
L 144.265129 288.679636 
L 147.416552 288.679636 
L 150.567975 288.679636 
L 153.719399 288.679636 
L 156.870822 288.679636 
L 160.022245 288.679636 
L 163.173669 288.679636 
L 166.325092 288.679636 
L 169.476515 288.679636 
L 172.627938 288.679636 
L 175.779362 288.679636 
L 178.930785 288.679636 
L 182.082208 288.679636 
L 185.233632 288.679636 
L 188.385055 288.679636 
L 191.536478 288.679636 
L 194.687902 288.679636 
L 197.839325 288.679636 
L 200.990748 288.679636 
L 204.142172 288.679636 
L 207.293595 288.679636 
L 210.445018 288.679636 
L 213.596442 288.679636 
L 216.747865 288.679636 
L 219.899288 288.679636 
L 223.050712 288.679636 
L 226.202135 288.679636 
L 229.353558 288.679636 
L 232.504982 288.679636 
L 235.656405 288.679636 
L 238.807828 288.679636 
L 241.959252 288.679636 
L 245.110675 288.679636 
L 248.262098 288.679636 
L 251.413522 288.679636 
L 254.564945 288.679636 
L 257.716368 288.679636 
L 260.867792 288.679636 
L 264.019215 288.679636 
L 267.170638 288.679636 
L 270.322062 288.679636 
L 273.473485 288.679636 
L 276.624908 288.679636 
L 279.776331 288.679636 
L 282.927755 288.679636 
L 286.079178 288.679636 
L 289.230601 288.679636 
L 292.382025 288.679636 
L 295.533448 288.679636 
L 298.684871 288.679636 
L 301.836295 288.679636 
L 304.987718 288.679636 
L 308.139141 288.679636 
L 311.290565 288.679636 
L 314.441988 288.679636 
L 317.593411 288.679636 
L 320.744835 288.679636 
L 323.896258 288.679636 
L 327.047681 288.679636 
L 330.199105 288.679636 
L 333.350528 288.679636 
L 336.501951 288.679636 
L 339.653375 288.679636 
L 342.804798 288.679636 
L 345.956221 288.679636 
L 349.107645 288.679636 
L 352.259068 288.679636 
L 355.410491 288.679636 
L 358.561915 288.679636 
L 361.713338 288.679636 
L 364.864761 288.679636 
L 368.016185 288.679636 
L 371.167608 288.679636 
L 374.319031 288.679636 
L 377.470455 288.679636 
" clip-path="url(#p6fd9a4aabd)" style="fill: none; stroke: #17becf; stroke-width: 1.5; stroke-linecap: square"/>
   </g>
   <g id="line2d_31">
    <path d="M 65.479545 212.950423 
L 68.630969 215.903008 
L 71.782392 219.592651 
L 74.933815 221.756339 
L 78.085239 222.955356 
L 81.236662 223.626354 
L 84.388085 223.984892 
L 87.539509 224.139287 
L 90.690932 224.148562 
L 93.842355 224.047846 
L 96.993779 223.859811 
L 100.145202 223.600117 
L 103.296625 223.28018 
L 106.448049 222.908653 
L 109.599472 222.492286 
L 112.750895 222.036435 
L 115.902319 221.545398 
L 119.053742 221.02264 
L 122.205165 220.47095 
L 125.356589 219.89256 
L 128.508012 219.289236 
L 131.659435 218.662347 
L 134.810859 218.012919 
L 137.962282 217.341688 
L 141.113705 216.649128 
L 144.265129 215.935484 
L 147.416552 215.200797 
L 150.567975 214.444918 
L 153.719399 213.667521 
L 156.870822 212.868113 
L 160.022245 212.046034 
L 163.173669 211.200449 
L 166.325092 210.33034 
L 169.476515 209.434486 
L 172.627938 208.511422 
L 175.779362 207.559392 
L 178.930785 206.576271 
L 182.082208 205.559441 
L 185.233632 204.505612 
L 188.385055 203.410532 
L 191.536478 202.268512 
L 194.687902 201.071626 
L 197.839325 199.808269 
L 200.990748 198.460399 
L 204.142172 196.997823 
L 207.293595 195.365001 
L 210.445018 193.445797 
L 213.596442 190.946867 
L 216.747865 186.847709 
L 219.899288 173.94655 
L 223.050712 173.94655 
L 226.202135 186.847709 
L 229.353558 190.946867 
L 232.504982 193.445797 
L 235.656405 195.365001 
L 238.807828 196.997823 
L 241.959252 198.460399 
L 245.110675 199.808269 
L 248.262098 201.071626 
L 251.413522 202.268512 
L 254.564945 203.410532 
L 257.716368 204.505612 
L 260.867792 205.559441 
L 264.019215 206.576271 
L 267.170638 207.559392 
L 270.322062 208.511422 
L 273.473485 209.434486 
L 276.624908 210.33034 
L 279.776331 211.200449 
L 282.927755 212.046034 
L 286.079178 212.868113 
L 289.230601 213.667521 
L 292.382025 214.444918 
L 295.533448 215.200797 
L 298.684871 215.935484 
L 301.836295 216.649128 
L 304.987718 217.341688 
L 308.139141 218.012919 
L 311.290565 218.662347 
L 314.441988 219.289236 
L 317.593411 219.89256 
L 320.744835 220.47095 
L 323.896258 221.02264 
L 327.047681 221.545398 
L 330.199105 222.036435 
L 333.350528 222.492286 
L 336.501951 222.908653 
L 339.653375 223.28018 
L 342.804798 223.600117 
L 345.956221 223.859811 
L 349.107645 224.047846 
L 352.259068 224.148562 
L 355.410491 224.139287 
L 358.561915 223.984892 
L 361.713338 223.626354 
L 364.864761 222.955356 
L 368.016185 221.756339 
L 371.167608 219.592651 
L 374.319031 215.903008 
L 377.470455 212.950423 
" clip-path="url(#p6fd9a4aabd)" style="fill: none; stroke: #1f77b4; stroke-width: 1.5; stroke-linecap: square"/>
   </g>
   <g id="line2d_32">
    <path d="M 65.479545 288.679636 
L 68.630969 270.088856 
L 71.782392 263.998325 
L 74.933815 265.337414 
L 78.085239 269.834971 
L 81.236662 275.101039 
L 84.388085 279.97662 
L 87.539509 284.167532 
L 90.690932 287.780855 
L 93.842355 286.330008 
L 96.993779 283.244242 
L 100.145202 280.163679 
L 103.296625 276.988674 
L 106.448049 273.687544 
L 109.599472 270.298944 
L 112.750895 266.913707 
L 115.902319 263.635813 
L 119.053742 260.542923 
L 122.205165 257.66833 
L 125.356589 255.006128 
L 128.508012 252.526528 
L 131.659435 250.1898 
L 134.810859 247.954862 
L 137.962282 245.783274 
L 141.113705 243.640451 
L 144.265129 241.495536 
L 147.416552 239.320752 
L 150.567975 237.090631 
L 153.719399 234.781281 
L 156.870822 232.369753 
L 160.022245 229.833521 
L 163.173669 227.15007 
L 166.325092 224.29659 
L 169.476515 221.249794 
L 172.627938 217.985873 
L 175.779362 214.480634 
L 178.930785 210.709872 
L 182.082208 206.650091 
L 185.233632 202.279666 
L 188.385055 197.580656 
L 191.536478 192.541496 
L 194.687902 187.160915 
L 197.839325 181.453686 
L 200.990748 175.459342 
L 204.142172 169.256664 
L 207.293595 162.992074 
L 210.445018 156.949879 
L 213.596442 151.785229 
L 216.747865 149.693563 
L 219.899288 168.898952 
L 223.050712 168.898952 
L 226.202135 149.693563 
L 229.353558 151.785229 
L 232.504982 156.949879 
L 235.656405 162.992074 
L 238.807828 169.256664 
L 241.959252 175.459342 
L 245.110675 181.453686 
L 248.262098 187.160915 
L 251.413522 192.541496 
L 254.564945 197.580656 
L 257.716368 202.279666 
L 260.867792 206.650091 
L 264.019215 210.709872 
L 267.170638 214.480634 
L 270.322062 217.985873 
L 273.473485 221.249794 
L 276.624908 224.29659 
L 279.776331 227.15007 
L 282.927755 229.833521 
L 286.079178 232.369753 
L 289.230601 234.781281 
L 292.382025 237.090631 
L 295.533448 239.320752 
L 298.684871 241.495536 
L 301.836295 243.640451 
L 304.987718 245.783274 
L 308.139141 247.954862 
L 311.290565 250.1898 
L 314.441988 252.526528 
L 317.593411 255.006128 
L 320.744835 257.66833 
L 323.896258 260.542923 
L 327.047681 263.635813 
L 330.199105 266.913707 
L 333.350528 270.298944 
L 336.501951 273.687544 
L 339.653375 276.988674 
L 342.804798 280.163679 
L 345.956221 283.244242 
L 349.107645 286.330008 
L 352.259068 287.780855 
L 355.410491 284.167532 
L 358.561915 279.97662 
L 361.713338 275.101039 
L 364.864761 269.834971 
L 368.016185 265.337414 
L 371.167608 263.998325 
L 374.319031 270.088856 
L 377.470455 288.679636 
" clip-path="url(#p6fd9a4aabd)" style="fill: none; stroke: #ff7f0e; stroke-width: 1.5; stroke-linecap: square"/>
   </g>
   <g id="line2d_33">
    <path d="M 65.479545 288.679636 
L 68.630969 288.679636 
L 71.782392 288.679636 
L 74.933815 288.679636 
L 78.085239 288.679636 
L 81.236662 288.679636 
L 84.388085 288.679636 
L 87.539509 288.679636 
L 90.690932 288.679636 
L 93.842355 288.679636 
L 96.993779 288.679636 
L 100.145202 288.679636 
L 103.296625 288.679636 
L 106.448049 288.679636 
L 109.599472 288.679636 
L 112.750895 288.679636 
L 115.902319 288.679636 
L 119.053742 288.679636 
L 122.205165 288.679636 
L 125.356589 288.679636 
L 128.508012 288.679636 
L 131.659435 288.679636 
L 134.810859 288.679636 
L 137.962282 288.679636 
L 141.113705 288.679636 
L 144.265129 288.679636 
L 147.416552 288.679636 
L 150.567975 288.679636 
L 153.719399 288.679636 
L 156.870822 288.679636 
L 160.022245 288.679636 
L 163.173669 288.679636 
L 166.325092 288.679636 
L 169.476515 288.679636 
L 172.627938 288.679636 
L 175.779362 288.679636 
L 178.930785 288.679636 
L 182.082208 288.679636 
L 185.233632 288.679636 
L 188.385055 288.679636 
L 191.536478 288.679636 
L 194.687902 288.679636 
L 197.839325 288.679636 
L 200.990748 288.679636 
L 204.142172 288.679636 
L 207.293595 288.679636 
L 210.445018 288.679636 
L 213.596442 288.679636 
L 216.747865 288.679636 
L 219.899288 288.679636 
L 223.050712 288.679636 
L 226.202135 288.679636 
L 229.353558 288.679636 
L 232.504982 288.679636 
L 235.656405 288.679636 
L 238.807828 288.679636 
L 241.959252 288.679636 
L 245.110675 288.679636 
L 248.262098 288.679636 
L 251.413522 288.679636 
L 254.564945 288.679636 
L 257.716368 288.679636 
L 260.867792 288.679636 
L 264.019215 288.679636 
L 267.170638 288.679636 
L 270.322062 288.679636 
L 273.473485 288.679636 
L 276.624908 288.679636 
L 279.776331 288.679636 
L 282.927755 288.679636 
L 286.079178 288.679636 
L 289.230601 288.679636 
L 292.382025 288.679636 
L 295.533448 288.679636 
L 298.684871 288.679636 
L 301.836295 288.679636 
L 304.987718 288.679636 
L 308.139141 288.679636 
L 311.290565 288.679636 
L 314.441988 288.679636 
L 317.593411 288.679636 
L 320.744835 288.679636 
L 323.896258 288.679636 
L 327.047681 288.679636 
L 330.199105 288.679636 
L 333.350528 288.679636 
L 336.501951 288.679636 
L 339.653375 288.679636 
L 342.804798 288.679636 
L 345.956221 288.679636 
L 349.107645 288.679636 
L 352.259068 288.679636 
L 355.410491 288.679636 
L 358.561915 288.679636 
L 361.713338 288.679636 
L 364.864761 288.679636 
L 368.016185 288.679636 
L 371.167608 288.679636 
L 374.319031 288.679636 
L 377.470455 288.679636 
" clip-path="url(#p6fd9a4aabd)" style="fill: none; stroke: #2ca02c; stroke-width: 1.5; stroke-linecap: square"/>
   </g>
   <g id="line2d_34">
    <path d="M 65.479545 225.908074 
L 68.630969 224.824404 
L 71.782392 221.800965 
L 74.933815 217.511738 
L 78.085239 212.799361 
L 81.236662 208.118842 
L 84.388085 203.384632 
L 87.539509 198.27465 
L 90.690932 192.474223 
L 93.842355 185.745604 
L 96.993779 177.943221 
L 100.145202 169.044566 
L 103.296625 159.203874 
L 106.448049 148.795394 
L 109.599472 138.385766 
L 112.750895 128.597115 
L 115.902319 119.914334 
L 119.053742 112.560761 
L 122.205165 106.50905 
L 125.356589 101.579145 
L 128.508012 97.53964 
L 131.659435 94.170656 
L 134.810859 91.289325 
L 137.962282 88.753381 
L 141.113705 86.455648 
L 144.265129 84.316354 
L 147.416552 82.276131 
L 150.567975 80.290464 
L 153.719399 78.325584 
L 156.870822 76.355538 
L 160.022245 74.360146 
L 163.173669 72.323628 
L 166.325092 70.233719 
L 169.476515 68.081171 
L 172.627938 65.859567 
L 175.779362 63.565408 
L 178.930785 61.198456 
L 182.082208 58.762331 
L 185.233632 56.265348 
L 188.385055 53.721591 
L 191.536478 51.15216 
L 194.687902 48.58649 
L 197.839325 46.063532 
L 200.990748 43.63247 
L 204.142172 41.352541 
L 207.293595 39.291418 
L 210.445018 37.521718 
L 213.596442 36.115452 
L 216.747865 35.136808 
L 219.899288 34.634363 
L 223.050712 34.634363 
L 226.202135 35.136808 
L 229.353558 36.115452 
L 232.504982 37.521718 
L 235.656405 39.291418 
L 238.807828 41.352541 
L 241.959252 43.63247 
L 245.110675 46.063532 
L 248.262098 48.58649 
L 251.413522 51.15216 
L 254.564945 53.721591 
L 257.716368 56.265348 
L 260.867792 58.762331 
L 264.019215 61.198456 
L 267.170638 63.565408 
L 270.322062 65.859567 
L 273.473485 68.081171 
L 276.624908 70.233719 
L 279.776331 72.323628 
L 282.927755 74.360146 
L 286.079178 76.355538 
L 289.230601 78.325584 
L 292.382025 80.290464 
L 295.533448 82.276131 
L 298.684871 84.316354 
L 301.836295 86.455648 
L 304.987718 88.753381 
L 308.139141 91.289325 
L 311.290565 94.170656 
L 314.441988 97.53964 
L 317.593411 101.579145 
L 320.744835 106.50905 
L 323.896258 112.560761 
L 327.047681 119.914334 
L 330.199105 128.597115 
L 333.350528 138.385766 
L 336.501951 148.795394 
L 339.653375 159.203874 
L 342.804798 169.044566 
L 345.956221 177.943221 
L 349.107645 185.745604 
L 352.259068 192.474223 
L 355.410491 198.27465 
L 358.561915 203.384632 
L 361.713338 208.118842 
L 364.864761 212.799361 
L 368.016185 217.511738 
L 371.167608 221.800965 
L 374.319031 224.824404 
L 377.470455 225.908074 
" clip-path="url(#p6fd9a4aabd)" style="fill: none; stroke: #d62728; stroke-width: 1.5; stroke-linecap: square"/>
   </g>
   <g id="line2d_35">
    <path d="M 65.479545 288.679636 
L 68.630969 288.679636 
L 71.782392 288.679636 
L 74.933815 288.679636 
L 78.085239 288.679636 
L 81.236662 288.679636 
L 84.388085 288.679636 
L 87.539509 288.679636 
L 90.690932 288.679636 
L 93.842355 288.679636 
L 96.993779 288.679636 
L 100.145202 288.679636 
L 103.296625 288.679636 
L 106.448049 288.679636 
L 109.599472 288.679636 
L 112.750895 288.679636 
L 115.902319 288.679636 
L 119.053742 288.679636 
L 122.205165 288.679636 
L 125.356589 288.679636 
L 128.508012 288.679636 
L 131.659435 288.679636 
L 134.810859 288.679636 
L 137.962282 288.679636 
L 141.113705 288.679636 
L 144.265129 288.679636 
L 147.416552 288.679636 
L 150.567975 288.679636 
L 153.719399 288.679636 
L 156.870822 288.679636 
L 160.022245 288.679636 
L 163.173669 288.679636 
L 166.325092 288.679636 
L 169.476515 288.679636 
L 172.627938 288.679636 
L 175.779362 288.679636 
L 178.930785 288.679636 
L 182.082208 288.679636 
L 185.233632 288.679636 
L 188.385055 288.679636 
L 191.536478 288.679636 
L 194.687902 288.679636 
L 197.839325 288.679636 
L 200.990748 288.679636 
L 204.142172 288.679636 
L 207.293595 288.679636 
L 210.445018 288.679636 
L 213.596442 288.679636 
L 216.747865 288.679636 
L 219.899288 288.679636 
L 223.050712 288.679636 
L 226.202135 288.679636 
L 229.353558 288.679636 
L 232.504982 288.679636 
L 235.656405 288.679636 
L 238.807828 288.679636 
L 241.959252 288.679636 
L 245.110675 288.679636 
L 248.262098 288.679636 
L 251.413522 288.679636 
L 254.564945 288.679636 
L 257.716368 288.679636 
L 260.867792 288.679636 
L 264.019215 288.679636 
L 267.170638 288.679636 
L 270.322062 288.679636 
L 273.473485 288.679636 
L 276.624908 288.679636 
L 279.776331 288.679636 
L 282.927755 288.679636 
L 286.079178 288.679636 
L 289.230601 288.679636 
L 292.382025 288.679636 
L 295.533448 288.679636 
L 298.684871 288.679636 
L 301.836295 288.679636 
L 304.987718 288.679636 
L 308.139141 288.679636 
L 311.290565 288.679636 
L 314.441988 288.679636 
L 317.593411 288.679636 
L 320.744835 288.679636 
L 323.896258 288.679636 
L 327.047681 288.679636 
L 330.199105 288.679636 
L 333.350528 288.679636 
L 336.501951 288.679636 
L 339.653375 288.679636 
L 342.804798 288.679636 
L 345.956221 288.679636 
L 349.107645 288.679636 
L 352.259068 288.679636 
L 355.410491 288.679636 
L 358.561915 288.679636 
L 361.713338 288.679636 
L 364.864761 288.679636 
L 368.016185 288.679636 
L 371.167608 288.679636 
L 374.319031 288.679636 
L 377.470455 288.679636 
" clip-path="url(#p6fd9a4aabd)" style="fill: none; stroke: #9467bd; stroke-width: 1.5; stroke-linecap: square"/>
   </g>
   <g id="patch_3">
    <path d="M 49.88 301.912 
L 49.88 10.8 
" style="fill: none; stroke: #000000; stroke-width: 0.8; stroke-linejoin: miter; stroke-linecap: square"/>
   </g>
   <g id="patch_4">
    <path d="M 393.07 301.912 
L 393.07 10.8 
" style="fill: none; stroke: #000000; stroke-width: 0.8; stroke-linejoin: miter; stroke-linecap: square"/>
   </g>
   <g id="patch_5">
    <path d="M 49.88 301.912 
L 393.07 301.912 
" style="fill: none; stroke: #000000; stroke-width: 0.8; stroke-linejoin: miter; stroke-linecap: square"/>
   </g>
   <g id="patch_6">
    <path d="M 49.88 10.8 
L 393.07 10.8 
" style="fill: none; stroke: #000000; stroke-width: 0.8; stroke-linejoin: miter; stroke-linecap: square"/>
   </g>
   <g id="legend_1">
    <g id="patch_7">
     <path d="M 400.07 267.941937 
L 447.973125 267.941937 
Q 449.973125 267.941937 449.973125 265.941937 
L 449.973125 46.770062 
Q 449.973125 44.770062 447.973125 44.770062 
L 400.07 44.770062 
Q 398.07 44.770062 398.07 46.770062 
L 398.07 265.941937 
Q 398.07 267.941937 400.07 267.941937 
z
" style="fill: #ffffff; opacity: 0.8; stroke: #cccccc; stroke-linejoin: miter"/>
    </g>
    <g id="line2d_36">
     <path d="M 402.07 52.8685 
L 412.07 52.8685 
L 422.07 52.8685 
" style="fill: none; stroke: #1f77b4; stroke-width: 1.5; stroke-linecap: square"/>
    </g>
    <g id="text_13">
     <!-- 0,0 -->
     <g transform="translate(430.07 56.3685) scale(0.1 -0.1)">
      <defs>
       <path id="DejaVuSans-2c" d="M 750 794 
L 1409 794 
L 1409 256 
L 897 -744 
L 494 -744 
L 750 256 
L 750 794 
z
" transform="scale(0.015625)"/>
      </defs>
      <use xlink:href="#DejaVuSans-30"/>
      <use xlink:href="#DejaVuSans-2c" transform="translate(63.623047 0)"/>
      <use xlink:href="#DejaVuSans-30" transform="translate(95.410156 0)"/>
     </g>
    </g>
    <g id="line2d_37">
     <path d="M 402.07 67.546625 
L 412.07 67.546625 
L 422.07 67.546625 
" style="fill: none; stroke: #ff7f0e; stroke-width: 1.5; stroke-linecap: square"/>
    </g>
    <g id="text_14">
     <!-- 0,1 -->
     <g transform="translate(430.07 71.046625) scale(0.1 -0.1)">
      <use xlink:href="#DejaVuSans-30"/>
      <use xlink:href="#DejaVuSans-2c" transform="translate(63.623047 0)"/>
      <use xlink:href="#DejaVuSans-31" transform="translate(95.410156 0)"/>
     </g>
    </g>
    <g id="line2d_38">
     <path d="M 402.07 82.22475 
L 412.07 82.22475 
L 422.07 82.22475 
" style="fill: none; stroke: #2ca02c; stroke-width: 1.5; stroke-linecap: square"/>
    </g>
    <g id="text_15">
     <!-- 0,2 -->
     <g transform="translate(430.07 85.72475) scale(0.1 -0.1)">
      <use xlink:href="#DejaVuSans-30"/>
      <use xlink:href="#DejaVuSans-2c" transform="translate(63.623047 0)"/>
      <use xlink:href="#DejaVuSans-32" transform="translate(95.410156 0)"/>
     </g>
    </g>
    <g id="line2d_39">
     <path d="M 402.07 96.902875 
L 412.07 96.902875 
L 422.07 96.902875 
" style="fill: none; stroke: #d62728; stroke-width: 1.5; stroke-linecap: square"/>
    </g>
    <g id="text_16">
     <!-- 0,3 -->
     <g transform="translate(430.07 100.402875) scale(0.1 -0.1)">
      <use xlink:href="#DejaVuSans-30"/>
      <use xlink:href="#DejaVuSans-2c" transform="translate(63.623047 0)"/>
      <use xlink:href="#DejaVuSans-33" transform="translate(95.410156 0)"/>
     </g>
    </g>
    <g id="line2d_40">
     <path d="M 402.07 111.581 
L 412.07 111.581 
L 422.07 111.581 
" style="fill: none; stroke: #9467bd; stroke-width: 1.5; stroke-linecap: square"/>
    </g>
    <g id="text_17">
     <!-- 0,4 -->
     <g transform="translate(430.07 115.081) scale(0.1 -0.1)">
      <use xlink:href="#DejaVuSans-30"/>
      <use xlink:href="#DejaVuSans-2c" transform="translate(63.623047 0)"/>
      <use xlink:href="#DejaVuSans-34" transform="translate(95.410156 0)"/>
     </g>
    </g>
    <g id="line2d_41">
     <path d="M 402.07 126.259125 
L 412.07 126.259125 
L 422.07 126.259125 
" style="fill: none; stroke: #8c564b; stroke-width: 1.5; stroke-linecap: square"/>
    </g>
    <g id="text_18">
     <!-- 1,1 -->
     <g transform="translate(430.07 129.759125) scale(0.1 -0.1)">
      <use xlink:href="#DejaVuSans-31"/>
      <use xlink:href="#DejaVuSans-2c" transform="translate(63.623047 0)"/>
      <use xlink:href="#DejaVuSans-31" transform="translate(95.410156 0)"/>
     </g>
    </g>
    <g id="line2d_42">
     <path d="M 402.07 140.93725 
L 412.07 140.93725 
L 422.07 140.93725 
" style="fill: none; stroke: #e377c2; stroke-width: 1.5; stroke-linecap: square"/>
    </g>
    <g id="text_19">
     <!-- 1,2 -->
     <g transform="translate(430.07 144.43725) scale(0.1 -0.1)">
      <use xlink:href="#DejaVuSans-31"/>
      <use xlink:href="#DejaVuSans-2c" transform="translate(63.623047 0)"/>
      <use xlink:href="#DejaVuSans-32" transform="translate(95.410156 0)"/>
     </g>
    </g>
    <g id="line2d_43">
     <path d="M 402.07 155.615375 
L 412.07 155.615375 
L 422.07 155.615375 
" style="fill: none; stroke: #7f7f7f; stroke-width: 1.5; stroke-linecap: square"/>
    </g>
    <g id="text_20">
     <!-- 1,3 -->
     <g transform="translate(430.07 159.115375) scale(0.1 -0.1)">
      <use xlink:href="#DejaVuSans-31"/>
      <use xlink:href="#DejaVuSans-2c" transform="translate(63.623047 0)"/>
      <use xlink:href="#DejaVuSans-33" transform="translate(95.410156 0)"/>
     </g>
    </g>
    <g id="line2d_44">
     <path d="M 402.07 170.2935 
L 412.07 170.2935 
L 422.07 170.2935 
" style="fill: none; stroke: #bcbd22; stroke-width: 1.5; stroke-linecap: square"/>
    </g>
    <g id="text_21">
     <!-- 1,4 -->
     <g transform="translate(430.07 173.7935) scale(0.1 -0.1)">
      <use xlink:href="#DejaVuSans-31"/>
      <use xlink:href="#DejaVuSans-2c" transform="translate(63.623047 0)"/>
      <use xlink:href="#DejaVuSans-34" transform="translate(95.410156 0)"/>
     </g>
    </g>
    <g id="line2d_45">
     <path d="M 402.07 184.971625 
L 412.07 184.971625 
L 422.07 184.971625 
" style="fill: none; stroke: #17becf; stroke-width: 1.5; stroke-linecap: square"/>
    </g>
    <g id="text_22">
     <!-- 2,2 -->
     <g transform="translate(430.07 188.471625) scale(0.1 -0.1)">
      <use xlink:href="#DejaVuSans-32"/>
      <use xlink:href="#DejaVuSans-2c" transform="translate(63.623047 0)"/>
      <use xlink:href="#DejaVuSans-32" transform="translate(95.410156 0)"/>
     </g>
    </g>
    <g id="line2d_46">
     <path d="M 402.07 199.64975 
L 412.07 199.64975 
L 422.07 199.64975 
" style="fill: none; stroke: #1f77b4; stroke-width: 1.5; stroke-linecap: square"/>
    </g>
    <g id="text_23">
     <!-- 2,3 -->
     <g transform="translate(430.07 203.14975) scale(0.1 -0.1)">
      <use xlink:href="#DejaVuSans-32"/>
      <use xlink:href="#DejaVuSans-2c" transform="translate(63.623047 0)"/>
      <use xlink:href="#DejaVuSans-33" transform="translate(95.410156 0)"/>
     </g>
    </g>
    <g id="line2d_47">
     <path d="M 402.07 214.327875 
L 412.07 214.327875 
L 422.07 214.327875 
" style="fill: none; stroke: #ff7f0e; stroke-width: 1.5; stroke-linecap: square"/>
    </g>
    <g id="text_24">
     <!-- 2,4 -->
     <g transform="translate(430.07 217.827875) scale(0.1 -0.1)">
      <use xlink:href="#DejaVuSans-32"/>
      <use xlink:href="#DejaVuSans-2c" transform="translate(63.623047 0)"/>
      <use xlink:href="#DejaVuSans-34" transform="translate(95.410156 0)"/>
     </g>
    </g>
    <g id="line2d_48">
     <path d="M 402.07 229.006 
L 412.07 229.006 
L 422.07 229.006 
" style="fill: none; stroke: #2ca02c; stroke-width: 1.5; stroke-linecap: square"/>
    </g>
    <g id="text_25">
     <!-- 3,3 -->
     <g transform="translate(430.07 232.506) scale(0.1 -0.1)">
      <use xlink:href="#DejaVuSans-33"/>
      <use xlink:href="#DejaVuSans-2c" transform="translate(63.623047 0)"/>
      <use xlink:href="#DejaVuSans-33" transform="translate(95.410156 0)"/>
     </g>
    </g>
    <g id="line2d_49">
     <path d="M 402.07 243.684125 
L 412.07 243.684125 
L 422.07 243.684125 
" style="fill: none; stroke: #d62728; stroke-width: 1.5; stroke-linecap: square"/>
    </g>
    <g id="text_26">
     <!-- 3,4 -->
     <g transform="translate(430.07 247.184125) scale(0.1 -0.1)">
      <use xlink:href="#DejaVuSans-33"/>
      <use xlink:href="#DejaVuSans-2c" transform="translate(63.623047 0)"/>
      <use xlink:href="#DejaVuSans-34" transform="translate(95.410156 0)"/>
     </g>
    </g>
    <g id="line2d_50">
     <path d="M 402.07 258.36225 
L 412.07 258.36225 
L 422.07 258.36225 
" style="fill: none; stroke: #9467bd; stroke-width: 1.5; stroke-linecap: square"/>
    </g>
    <g id="text_27">
     <!-- 4,4 -->
     <g transform="translate(430.07 261.86225) scale(0.1 -0.1)">
      <use xlink:href="#DejaVuSans-34"/>
      <use xlink:href="#DejaVuSans-2c" transform="translate(63.623047 0)"/>
      <use xlink:href="#DejaVuSans-34" transform="translate(95.410156 0)"/>
     </g>
    </g>
   </g>
  </g>
 </g>
 <defs>
  <clipPath id="p6fd9a4aabd">
   <rect x="49.88" y="10.8" width="343.19" height="291.112"/>
  </clipPath>
 </defs>
</svg>
