<?xml version="1.0" encoding="utf-8" standalone="no"?>
<!DOCTYPE svg PUBLIC "-//W3C//DTD SVG 1.1//EN"
  "http://www.w3.org/Graphics/SVG/1.1/DTD/svg11.dtd">
<svg xmlns:xlink="http://www.w3.org/1999/xlink" width="460.8pt" height="345.6pt" viewBox="0 0 460.8 345.6" xmlns="http://www.w3.org/2000/svg" version="1.1">
 <metadata>
  <rdf:RDF xmlns:dc="http://purl.org/dc/elements/1.1/" xmlns:cc="http://creativecommons.org/ns#" xmlns:rdf="http://www.w3.org/1999/02/22-rdf-syntax-ns#">
   <cc:Work>
    <dc:type rdf:resource="http://purl.org/dc/dcmitype/StillImage"/>
    <dc:date>2025-09-19T14:38:42.639812</dc:date>
    <dc:format>image/svg+xml</dc:format>
    <dc:creator>
     <cc:Agent>
      <dc:title>Matplotlib v3.10.6, https://matplotlib.org/</dc:title>
     </cc:Agent>
    </dc:creator>
   </cc:Work>
  </rdf:RDF>
 </metadata>
 <defs>
  <style type="text/css">*{stroke-linejoin: round; stroke-linecap: butt}</style>
 </defs>
 <g id="figure_1">
  <g id="patch_1">
   <path d="M 0 345.6 
L 460.8 345.6 
L 460.8 0 
L 0 0 
z
" style="fill: #ffffff"/>
  </g>
  <g id="axes_1">
   <g id="patch_2">
    <path d="M 38.99 301.912 
L 393.07 301.912 
L 393.07 10.8 
L 38.99 10.8 
z
" style="fill: #ffffff"/>
   </g>
   <g id="matplotlib.axis_1">
    <g id="xtick_1">
     <g id="line2d_1">
      <path d="M 87.273636 301.912 
L 87.273636 10.8 
" clip-path="url(#pbb49804b77)" style="fill: none; stroke: #b0b0b0; stroke-width: 0.8; stroke-linecap: square"/>
     </g>
     <g id="line2d_2">
      <defs>
       <path id="m0d2102e4cd" d="M 0 0 
L 0 3.5 
" style="stroke: #000000; stroke-width: 0.8"/>
      </defs>
      <g>
       <use xlink:href="#m0d2102e4cd" x="87.273636" y="301.912" style="stroke: #000000; stroke-width: 0.8"/>
      </g>
     </g>
     <g id="text_1">
      <!-- −0.4 -->
      <g transform="translate(75.13223 316.510437) scale(0.1 -0.1)">
       <defs>
        <path id="DejaVuSans-2212" d="M 678 2272 
L 4684 2272 
L 4684 1741 
L 678 1741 
L 678 2272 
z
" transform="scale(0.015625)"/>
        <path id="DejaVuSans-30" d="M 2034 4250 
Q 1547 4250 1301 3770 
Q 1056 3291 1056 2328 
Q 1056 1369 1301 889 
Q 1547 409 2034 409 
Q 2525 409 2770 889 
Q 3016 1369 3016 2328 
Q 3016 3291 2770 3770 
Q 2525 4250 2034 4250 
z
M 2034 4750 
Q 2819 4750 3233 4129 
Q 3647 3509 3647 2328 
Q 3647 1150 3233 529 
Q 2819 -91 2034 -91 
Q 1250 -91 836 529 
Q 422 1150 422 2328 
Q 422 3509 836 4129 
Q 1250 4750 2034 4750 
z
" transform="scale(0.015625)"/>
        <path id="DejaVuSans-2e" d="M 684 794 
L 1344 794 
L 1344 0 
L 684 0 
L 684 794 
z
" transform="scale(0.015625)"/>
        <path id="DejaVuSans-34" d="M 2419 4116 
L 825 1625 
L 2419 1625 
L 2419 4116 
z
M 2253 4666 
L 3047 4666 
L 3047 1625 
L 3713 1625 
L 3713 1100 
L 3047 1100 
L 3047 0 
L 2419 0 
L 2419 1100 
L 313 1100 
L 313 1709 
L 2253 4666 
z
" transform="scale(0.015625)"/>
       </defs>
       <use xlink:href="#DejaVuSans-2212"/>
       <use xlink:href="#DejaVuSans-30" transform="translate(83.789062 0)"/>
       <use xlink:href="#DejaVuSans-2e" transform="translate(147.412109 0)"/>
       <use xlink:href="#DejaVuSans-34" transform="translate(179.199219 0)"/>
      </g>
     </g>
    </g>
    <g id="xtick_2">
     <g id="line2d_3">
      <path d="M 151.651818 301.912 
L 151.651818 10.8 
" clip-path="url(#pbb49804b77)" style="fill: none; stroke: #b0b0b0; stroke-width: 0.8; stroke-linecap: square"/>
     </g>
     <g id="line2d_4">
      <g>
       <use xlink:href="#m0d2102e4cd" x="151.651818" y="301.912" style="stroke: #000000; stroke-width: 0.8"/>
      </g>
     </g>
     <g id="text_2">
      <!-- −0.2 -->
      <g transform="translate(139.510412 316.510437) scale(0.1 -0.1)">
       <defs>
        <path id="DejaVuSans-32" d="M 1228 531 
L 3431 531 
L 3431 0 
L 469 0 
L 469 531 
Q 828 903 1448 1529 
Q 2069 2156 2228 2338 
Q 2531 2678 2651 2914 
Q 2772 3150 2772 3378 
Q 2772 3750 2511 3984 
Q 2250 4219 1831 4219 
Q 1534 4219 1204 4116 
Q 875 4013 500 3803 
L 500 4441 
Q 881 4594 1212 4672 
Q 1544 4750 1819 4750 
Q 2544 4750 2975 4387 
Q 3406 4025 3406 3419 
Q 3406 3131 3298 2873 
Q 3191 2616 2906 2266 
Q 2828 2175 2409 1742 
Q 1991 1309 1228 531 
z
" transform="scale(0.015625)"/>
       </defs>
       <use xlink:href="#DejaVuSans-2212"/>
       <use xlink:href="#DejaVuSans-30" transform="translate(83.789062 0)"/>
       <use xlink:href="#DejaVuSans-2e" transform="translate(147.412109 0)"/>
       <use xlink:href="#DejaVuSans-32" transform="translate(179.199219 0)"/>
      </g>
     </g>
    </g>
    <g id="xtick_3">
     <g id="line2d_5">
      <path d="M 216.03 301.912 
L 216.03 10.8 
" clip-path="url(#pbb49804b77)" style="fill: none; stroke: #b0b0b0; stroke-width: 0.8; stroke-linecap: square"/>
     </g>
     <g id="line2d_6">
      <g>
       <use xlink:href="#m0d2102e4cd" x="216.03" y="301.912" style="stroke: #000000; stroke-width: 0.8"/>
      </g>
     </g>
     <g id="text_3">
      <!-- 0.0 -->
      <g transform="translate(208.078438 316.510437) scale(0.1 -0.1)">
       <use xlink:href="#DejaVuSans-30"/>
       <use xlink:href="#DejaVuSans-2e" transform="translate(63.623047 0)"/>
       <use xlink:href="#DejaVuSans-30" transform="translate(95.410156 0)"/>
      </g>
     </g>
    </g>
    <g id="xtick_4">
     <g id="line2d_7">
      <path d="M 280.408182 301.912 
L 280.408182 10.8 
" clip-path="url(#pbb49804b77)" style="fill: none; stroke: #b0b0b0; stroke-width: 0.8; stroke-linecap: square"/>
     </g>
     <g id="line2d_8">
      <g>
       <use xlink:href="#m0d2102e4cd" x="280.408182" y="301.912" style="stroke: #000000; stroke-width: 0.8"/>
      </g>
     </g>
     <g id="text_4">
      <!-- 0.2 -->
      <g transform="translate(272.456619 316.510437) scale(0.1 -0.1)">
       <use xlink:href="#DejaVuSans-30"/>
       <use xlink:href="#DejaVuSans-2e" transform="translate(63.623047 0)"/>
       <use xlink:href="#DejaVuSans-32" transform="translate(95.410156 0)"/>
      </g>
     </g>
    </g>
    <g id="xtick_5">
     <g id="line2d_9">
      <path d="M 344.786364 301.912 
L 344.786364 10.8 
" clip-path="url(#pbb49804b77)" style="fill: none; stroke: #b0b0b0; stroke-width: 0.8; stroke-linecap: square"/>
     </g>
     <g id="line2d_10">
      <g>
       <use xlink:href="#m0d2102e4cd" x="344.786364" y="301.912" style="stroke: #000000; stroke-width: 0.8"/>
      </g>
     </g>
     <g id="text_5">
      <!-- 0.4 -->
      <g transform="translate(336.834801 316.510437) scale(0.1 -0.1)">
       <use xlink:href="#DejaVuSans-30"/>
       <use xlink:href="#DejaVuSans-2e" transform="translate(63.623047 0)"/>
       <use xlink:href="#DejaVuSans-34" transform="translate(95.410156 0)"/>
      </g>
     </g>
    </g>
    <g id="text_6">
     <!-- $\Phi_{\mathrm{ext}}/\Phi_0$ -->
     <g transform="translate(198.28 330.188562) scale(0.1 -0.1)">
      <defs>
       <path id="DejaVuSans-3a6" d="M 2206 3644 
Q 1738 3578 1431 3306 
Q 1025 2947 1025 2328 
Q 1025 1713 1431 1353 
Q 1738 1081 2206 1016 
L 2206 3644 
z
M 2838 1016 
Q 3306 1081 3613 1353 
Q 4013 1713 4013 2328 
Q 4013 2947 3613 3306 
Q 3306 3578 2838 3644 
L 2838 1016 
z
M 2206 494 
Q 1444 563 950 981 
Q 359 1481 359 2328 
Q 359 3175 950 3678 
Q 1441 4100 2206 4169 
L 2206 4666 
L 2838 4666 
L 2838 4169 
Q 3600 4097 4091 3678 
Q 4678 3175 4678 2328 
Q 4678 1484 4091 981 
Q 3600 563 2838 491 
L 2838 0 
L 2206 0 
L 2206 494 
z
" transform="scale(0.015625)"/>
       <path id="DejaVuSans-65" d="M 3597 1894 
L 3597 1613 
L 953 1613 
Q 991 1019 1311 708 
Q 1631 397 2203 397 
Q 2534 397 2845 478 
Q 3156 559 3463 722 
L 3463 178 
Q 3153 47 2828 -22 
Q 2503 -91 2169 -91 
Q 1331 -91 842 396 
Q 353 884 353 1716 
Q 353 2575 817 3079 
Q 1281 3584 2069 3584 
Q 2775 3584 3186 3129 
Q 3597 2675 3597 1894 
z
M 3022 2063 
Q 3016 2534 2758 2815 
Q 2500 3097 2075 3097 
Q 1594 3097 1305 2825 
Q 1016 2553 972 2059 
L 3022 2063 
z
" transform="scale(0.015625)"/>
       <path id="DejaVuSans-78" d="M 3513 3500 
L 2247 1797 
L 3578 0 
L 2900 0 
L 1881 1375 
L 863 0 
L 184 0 
L 1544 1831 
L 300 3500 
L 978 3500 
L 1906 2253 
L 2834 3500 
L 3513 3500 
z
" transform="scale(0.015625)"/>
       <path id="DejaVuSans-74" d="M 1172 4494 
L 1172 3500 
L 2356 3500 
L 2356 3053 
L 1172 3053 
L 1172 1153 
Q 1172 725 1289 603 
Q 1406 481 1766 481 
L 2356 481 
L 2356 0 
L 1766 0 
Q 1100 0 847 248 
Q 594 497 594 1153 
L 594 3053 
L 172 3053 
L 172 3500 
L 594 3500 
L 594 4494 
L 1172 4494 
z
" transform="scale(0.015625)"/>
       <path id="DejaVuSans-2f" d="M 1625 4666 
L 2156 4666 
L 531 -594 
L 0 -594 
L 1625 4666 
z
" transform="scale(0.015625)"/>
      </defs>
      <use xlink:href="#DejaVuSans-3a6" transform="translate(0 0.09375)"/>
      <use xlink:href="#DejaVuSans-65" transform="translate(79.667969 -16.3125) scale(0.7)"/>
      <use xlink:href="#DejaVuSans-78" transform="translate(122.734375 -16.3125) scale(0.7)"/>
      <use xlink:href="#DejaVuSans-74" transform="translate(164.160156 -16.3125) scale(0.7)"/>
      <use xlink:href="#DejaVuSans-2f" transform="translate(194.34082 0.09375)"/>
      <use xlink:href="#DejaVuSans-3a6" transform="translate(228.032227 0.09375)"/>
      <use xlink:href="#DejaVuSans-30" transform="translate(307.700195 -16.3125) scale(0.7)"/>
     </g>
    </g>
   </g>
   <g id="matplotlib.axis_2">
    <g id="ytick_1">
     <g id="line2d_11">
      <path d="M 38.99 288.679636 
L 393.07 288.679636 
" clip-path="url(#pbb49804b77)" style="fill: none; stroke: #b0b0b0; stroke-width: 0.8; stroke-linecap: square"/>
     </g>
     <g id="line2d_12">
      <defs>
       <path id="m781c4a87a5" d="M 0 0 
L -3.5 0 
" style="stroke: #000000; stroke-width: 0.8"/>
      </defs>
      <g>
       <use xlink:href="#m781c4a87a5" x="38.99" y="288.679636" style="stroke: #000000; stroke-width: 0.8"/>
      </g>
     </g>
     <g id="text_7">
      <!-- 0 -->
      <g transform="translate(25.6275 292.478855) scale(0.1 -0.1)">
       <use xlink:href="#DejaVuSans-30"/>
      </g>
     </g>
    </g>
    <g id="ytick_2">
     <g id="line2d_13">
      <path d="M 38.99 255.073239 
L 393.07 255.073239 
" clip-path="url(#pbb49804b77)" style="fill: none; stroke: #b0b0b0; stroke-width: 0.8; stroke-linecap: square"/>
     </g>
     <g id="line2d_14">
      <g>
       <use xlink:href="#m781c4a87a5" x="38.99" y="255.073239" style="stroke: #000000; stroke-width: 0.8"/>
      </g>
     </g>
     <g id="text_8">
      <!-- 1 -->
      <g transform="translate(25.6275 258.872458) scale(0.1 -0.1)">
       <defs>
        <path id="DejaVuSans-31" d="M 794 531 
L 1825 531 
L 1825 4091 
L 703 3866 
L 703 4441 
L 1819 4666 
L 2450 4666 
L 2450 531 
L 3481 531 
L 3481 0 
L 794 0 
L 794 531 
z
" transform="scale(0.015625)"/>
       </defs>
       <use xlink:href="#DejaVuSans-31"/>
      </g>
     </g>
    </g>
    <g id="ytick_3">
     <g id="line2d_15">
      <path d="M 38.99 221.466841 
L 393.07 221.466841 
" clip-path="url(#pbb49804b77)" style="fill: none; stroke: #b0b0b0; stroke-width: 0.8; stroke-linecap: square"/>
     </g>
     <g id="line2d_16">
      <g>
       <use xlink:href="#m781c4a87a5" x="38.99" y="221.466841" style="stroke: #000000; stroke-width: 0.8"/>
      </g>
     </g>
     <g id="text_9">
      <!-- 2 -->
      <g transform="translate(25.6275 225.26606) scale(0.1 -0.1)">
       <use xlink:href="#DejaVuSans-32"/>
      </g>
     </g>
    </g>
    <g id="ytick_4">
     <g id="line2d_17">
      <path d="M 38.99 187.860444 
L 393.07 187.860444 
" clip-path="url(#pbb49804b77)" style="fill: none; stroke: #b0b0b0; stroke-width: 0.8; stroke-linecap: square"/>
     </g>
     <g id="line2d_18">
      <g>
       <use xlink:href="#m781c4a87a5" x="38.99" y="187.860444" style="stroke: #000000; stroke-width: 0.8"/>
      </g>
     </g>
     <g id="text_10">
      <!-- 3 -->
      <g transform="translate(25.6275 191.659663) scale(0.1 -0.1)">
       <defs>
        <path id="DejaVuSans-33" d="M 2597 2516 
Q 3050 2419 3304 2112 
Q 3559 1806 3559 1356 
Q 3559 666 3084 287 
Q 2609 -91 1734 -91 
Q 1441 -91 1130 -33 
Q 819 25 488 141 
L 488 750 
Q 750 597 1062 519 
Q 1375 441 1716 441 
Q 2309 441 2620 675 
Q 2931 909 2931 1356 
Q 2931 1769 2642 2001 
Q 2353 2234 1838 2234 
L 1294 2234 
L 1294 2753 
L 1863 2753 
Q 2328 2753 2575 2939 
Q 2822 3125 2822 3475 
Q 2822 3834 2567 4026 
Q 2313 4219 1838 4219 
Q 1578 4219 1281 4162 
Q 984 4106 628 3988 
L 628 4550 
Q 988 4650 1302 4700 
Q 1616 4750 1894 4750 
Q 2613 4750 3031 4423 
Q 3450 4097 3450 3541 
Q 3450 3153 3228 2886 
Q 3006 2619 2597 2516 
z
" transform="scale(0.015625)"/>
       </defs>
       <use xlink:href="#DejaVuSans-33"/>
      </g>
     </g>
    </g>
    <g id="ytick_5">
     <g id="line2d_19">
      <path d="M 38.99 154.254046 
L 393.07 154.254046 
" clip-path="url(#pbb49804b77)" style="fill: none; stroke: #b0b0b0; stroke-width: 0.8; stroke-linecap: square"/>
     </g>
     <g id="line2d_20">
      <g>
       <use xlink:href="#m781c4a87a5" x="38.99" y="154.254046" style="stroke: #000000; stroke-width: 0.8"/>
      </g>
     </g>
     <g id="text_11">
      <!-- 4 -->
      <g transform="translate(25.6275 158.053265) scale(0.1 -0.1)">
       <use xlink:href="#DejaVuSans-34"/>
      </g>
     </g>
    </g>
    <g id="ytick_6">
     <g id="line2d_21">
      <path d="M 38.99 120.647649 
L 393.07 120.647649 
" clip-path="url(#pbb49804b77)" style="fill: none; stroke: #b0b0b0; stroke-width: 0.8; stroke-linecap: square"/>
     </g>
     <g id="line2d_22">
      <g>
       <use xlink:href="#m781c4a87a5" x="38.99" y="120.647649" style="stroke: #000000; stroke-width: 0.8"/>
      </g>
     </g>
     <g id="text_12">
      <!-- 5 -->
      <g transform="translate(25.6275 124.446868) scale(0.1 -0.1)">
       <defs>
        <path id="DejaVuSans-35" d="M 691 4666 
L 3169 4666 
L 3169 4134 
L 1269 4134 
L 1269 2991 
Q 1406 3038 1543 3061 
Q 1681 3084 1819 3084 
Q 2600 3084 3056 2656 
Q 3513 2228 3513 1497 
Q 3513 744 3044 326 
Q 2575 -91 1722 -91 
Q 1428 -91 1123 -41 
Q 819 9 494 109 
L 494 744 
Q 775 591 1075 516 
Q 1375 441 1709 441 
Q 2250 441 2565 725 
Q 2881 1009 2881 1497 
Q 2881 1984 2565 2268 
Q 2250 2553 1709 2553 
Q 1456 2553 1204 2497 
Q 953 2441 691 2322 
L 691 4666 
z
" transform="scale(0.015625)"/>
       </defs>
       <use xlink:href="#DejaVuSans-35"/>
      </g>
     </g>
    </g>
    <g id="ytick_7">
     <g id="line2d_23">
      <path d="M 38.99 87.041252 
L 393.07 87.041252 
" clip-path="url(#pbb49804b77)" style="fill: none; stroke: #b0b0b0; stroke-width: 0.8; stroke-linecap: square"/>
     </g>
     <g id="line2d_24">
      <g>
       <use xlink:href="#m781c4a87a5" x="38.99" y="87.041252" style="stroke: #000000; stroke-width: 0.8"/>
      </g>
     </g>
     <g id="text_13">
      <!-- 6 -->
      <g transform="translate(25.6275 90.84047) scale(0.1 -0.1)">
       <defs>
        <path id="DejaVuSans-36" d="M 2113 2584 
Q 1688 2584 1439 2293 
Q 1191 2003 1191 1497 
Q 1191 994 1439 701 
Q 1688 409 2113 409 
Q 2538 409 2786 701 
Q 3034 994 3034 1497 
Q 3034 2003 2786 2293 
Q 2538 2584 2113 2584 
z
M 3366 4563 
L 3366 3988 
Q 3128 4100 2886 4159 
Q 2644 4219 2406 4219 
Q 1781 4219 1451 3797 
Q 1122 3375 1075 2522 
Q 1259 2794 1537 2939 
Q 1816 3084 2150 3084 
Q 2853 3084 3261 2657 
Q 3669 2231 3669 1497 
Q 3669 778 3244 343 
Q 2819 -91 2113 -91 
Q 1303 -91 875 529 
Q 447 1150 447 2328 
Q 447 3434 972 4092 
Q 1497 4750 2381 4750 
Q 2619 4750 2861 4703 
Q 3103 4656 3366 4563 
z
" transform="scale(0.015625)"/>
       </defs>
       <use xlink:href="#DejaVuSans-36"/>
      </g>
     </g>
    </g>
    <g id="ytick_8">
     <g id="line2d_25">
      <path d="M 38.99 53.434854 
L 393.07 53.434854 
" clip-path="url(#pbb49804b77)" style="fill: none; stroke: #b0b0b0; stroke-width: 0.8; stroke-linecap: square"/>
     </g>
     <g id="line2d_26">
      <g>
       <use xlink:href="#m781c4a87a5" x="38.99" y="53.434854" style="stroke: #000000; stroke-width: 0.8"/>
      </g>
     </g>
     <g id="text_14">
      <!-- 7 -->
      <g transform="translate(25.6275 57.234073) scale(0.1 -0.1)">
       <defs>
        <path id="DejaVuSans-37" d="M 525 4666 
L 3525 4666 
L 3525 4397 
L 1831 0 
L 1172 0 
L 2766 4134 
L 525 4134 
L 525 4666 
z
" transform="scale(0.015625)"/>
       </defs>
       <use xlink:href="#DejaVuSans-37"/>
      </g>
     </g>
    </g>
    <g id="ytick_9">
     <g id="line2d_27">
      <path d="M 38.99 19.828457 
L 393.07 19.828457 
" clip-path="url(#pbb49804b77)" style="fill: none; stroke: #b0b0b0; stroke-width: 0.8; stroke-linecap: square"/>
     </g>
     <g id="line2d_28">
      <g>
       <use xlink:href="#m781c4a87a5" x="38.99" y="19.828457" style="stroke: #000000; stroke-width: 0.8"/>
      </g>
     </g>
     <g id="text_15">
      <!-- 8 -->
      <g transform="translate(25.6275 23.627675) scale(0.1 -0.1)">
       <defs>
        <path id="DejaVuSans-38" d="M 2034 2216 
Q 1584 2216 1326 1975 
Q 1069 1734 1069 1313 
Q 1069 891 1326 650 
Q 1584 409 2034 409 
Q 2484 409 2743 651 
Q 3003 894 3003 1313 
Q 3003 1734 2745 1975 
Q 2488 2216 2034 2216 
z
M 1403 2484 
Q 997 2584 770 2862 
Q 544 3141 544 3541 
Q 544 4100 942 4425 
Q 1341 4750 2034 4750 
Q 2731 4750 3128 4425 
Q 3525 4100 3525 3541 
Q 3525 3141 3298 2862 
Q 3072 2584 2669 2484 
Q 3125 2378 3379 2068 
Q 3634 1759 3634 1313 
Q 3634 634 3220 271 
Q 2806 -91 2034 -91 
Q 1263 -91 848 271 
Q 434 634 434 1313 
Q 434 1759 690 2068 
Q 947 2378 1403 2484 
z
M 1172 3481 
Q 1172 3119 1398 2916 
Q 1625 2713 2034 2713 
Q 2441 2713 2670 2916 
Q 2900 3119 2900 3481 
Q 2900 3844 2670 4047 
Q 2441 4250 2034 4250 
Q 1625 4250 1398 4047 
Q 1172 3844 1172 3481 
z
" transform="scale(0.015625)"/>
       </defs>
       <use xlink:href="#DejaVuSans-38"/>
      </g>
     </g>
    </g>
    <g id="text_16">
     <!-- $matrix element$ -->
     <g transform="translate(19.547813 193.306) rotate(-90) scale(0.1 -0.1)">
      <defs>
       <path id="DejaVuSans-Oblique-6d" d="M 5747 2113 
L 5338 0 
L 4763 0 
L 5166 2094 
Q 5191 2228 5203 2325 
Q 5216 2422 5216 2491 
Q 5216 2772 5059 2928 
Q 4903 3084 4622 3084 
Q 4203 3084 3875 2770 
Q 3547 2456 3450 1953 
L 3066 0 
L 2491 0 
L 2900 2094 
Q 2925 2209 2937 2307 
Q 2950 2406 2950 2484 
Q 2950 2769 2794 2926 
Q 2638 3084 2363 3084 
Q 1938 3084 1609 2770 
Q 1281 2456 1184 1953 
L 800 0 
L 225 0 
L 909 3500 
L 1484 3500 
L 1375 2956 
Q 1609 3263 1923 3423 
Q 2238 3584 2597 3584 
Q 2978 3584 3223 3384 
Q 3469 3184 3519 2828 
Q 3781 3197 4126 3390 
Q 4472 3584 4856 3584 
Q 5306 3584 5551 3325 
Q 5797 3066 5797 2591 
Q 5797 2488 5784 2364 
Q 5772 2241 5747 2113 
z
" transform="scale(0.015625)"/>
       <path id="DejaVuSans-Oblique-61" d="M 3438 1997 
L 3047 0 
L 2472 0 
L 2578 531 
Q 2325 219 2001 64 
Q 1678 -91 1281 -91 
Q 834 -91 548 182 
Q 263 456 263 884 
Q 263 1497 752 1853 
Q 1241 2209 2100 2209 
L 2900 2209 
L 2931 2363 
Q 2938 2388 2941 2417 
Q 2944 2447 2944 2509 
Q 2944 2788 2717 2942 
Q 2491 3097 2081 3097 
Q 1800 3097 1504 3025 
Q 1209 2953 897 2809 
L 997 3341 
Q 1322 3463 1633 3523 
Q 1944 3584 2234 3584 
Q 2853 3584 3176 3315 
Q 3500 3047 3500 2534 
Q 3500 2431 3484 2292 
Q 3469 2153 3438 1997 
z
M 2816 1759 
L 2241 1759 
Q 1534 1759 1195 1570 
Q 856 1381 856 984 
Q 856 709 1029 553 
Q 1203 397 1509 397 
Q 1978 397 2328 733 
Q 2678 1069 2791 1631 
L 2816 1759 
z
" transform="scale(0.015625)"/>
       <path id="DejaVuSans-Oblique-74" d="M 2706 3500 
L 2619 3053 
L 1472 3053 
L 1100 1153 
Q 1081 1047 1072 975 
Q 1063 903 1063 863 
Q 1063 663 1183 572 
Q 1303 481 1569 481 
L 2150 481 
L 2053 0 
L 1503 0 
Q 991 0 739 200 
Q 488 400 488 806 
Q 488 878 497 964 
Q 506 1050 525 1153 
L 897 3053 
L 409 3053 
L 500 3500 
L 978 3500 
L 1172 4494 
L 1747 4494 
L 1556 3500 
L 2706 3500 
z
" transform="scale(0.015625)"/>
       <path id="DejaVuSans-Oblique-72" d="M 2853 2969 
Q 2766 3016 2653 3041 
Q 2541 3066 2413 3066 
Q 1953 3066 1609 2717 
Q 1266 2369 1153 1784 
L 800 0 
L 225 0 
L 909 3500 
L 1484 3500 
L 1375 2956 
Q 1603 3259 1920 3421 
Q 2238 3584 2597 3584 
Q 2691 3584 2781 3573 
Q 2872 3563 2963 3538 
L 2853 2969 
z
" transform="scale(0.015625)"/>
       <path id="DejaVuSans-Oblique-69" d="M 1172 4863 
L 1747 4863 
L 1606 4134 
L 1031 4134 
L 1172 4863 
z
M 909 3500 
L 1484 3500 
L 800 0 
L 225 0 
L 909 3500 
z
" transform="scale(0.015625)"/>
       <path id="DejaVuSans-Oblique-78" d="M 3841 3500 
L 2234 1784 
L 3219 0 
L 2559 0 
L 1819 1388 
L 531 0 
L -166 0 
L 1556 1844 
L 641 3500 
L 1300 3500 
L 1972 2234 
L 3144 3500 
L 3841 3500 
z
" transform="scale(0.015625)"/>
       <path id="DejaVuSans-Oblique-65" d="M 3078 2063 
Q 3088 2113 3092 2166 
Q 3097 2219 3097 2272 
Q 3097 2653 2873 2875 
Q 2650 3097 2266 3097 
Q 1838 3097 1509 2826 
Q 1181 2556 1013 2059 
L 3078 2063 
z
M 3578 1613 
L 903 1613 
Q 884 1494 878 1425 
Q 872 1356 872 1306 
Q 872 872 1139 634 
Q 1406 397 1894 397 
Q 2269 397 2603 481 
Q 2938 566 3225 728 
L 3116 159 
Q 2806 34 2476 -28 
Q 2147 -91 1806 -91 
Q 1078 -91 686 257 
Q 294 606 294 1247 
Q 294 1794 489 2264 
Q 684 2734 1063 3103 
Q 1306 3334 1642 3459 
Q 1978 3584 2356 3584 
Q 2950 3584 3301 3228 
Q 3653 2872 3653 2272 
Q 3653 2128 3634 1964 
Q 3616 1800 3578 1613 
z
" transform="scale(0.015625)"/>
       <path id="DejaVuSans-Oblique-6c" d="M 1172 4863 
L 1747 4863 
L 800 0 
L 225 0 
L 1172 4863 
z
" transform="scale(0.015625)"/>
       <path id="DejaVuSans-Oblique-6e" d="M 3566 2113 
L 3156 0 
L 2578 0 
L 2988 2091 
Q 3016 2238 3031 2350 
Q 3047 2463 3047 2528 
Q 3047 2791 2881 2937 
Q 2716 3084 2419 3084 
Q 1956 3084 1622 2776 
Q 1288 2469 1184 1941 
L 800 0 
L 225 0 
L 903 3500 
L 1478 3500 
L 1363 2950 
Q 1603 3253 1940 3418 
Q 2278 3584 2650 3584 
Q 3113 3584 3367 3334 
Q 3622 3084 3622 2631 
Q 3622 2519 3608 2391 
Q 3594 2263 3566 2113 
z
" transform="scale(0.015625)"/>
      </defs>
      <use xlink:href="#DejaVuSans-Oblique-6d" transform="translate(0 0.015625)"/>
      <use xlink:href="#DejaVuSans-Oblique-61" transform="translate(97.412109 0.015625)"/>
      <use xlink:href="#DejaVuSans-Oblique-74" transform="translate(158.691406 0.015625)"/>
      <use xlink:href="#DejaVuSans-Oblique-72" transform="translate(197.900391 0.015625)"/>
      <use xlink:href="#DejaVuSans-Oblique-69" transform="translate(239.013672 0.015625)"/>
      <use xlink:href="#DejaVuSans-Oblique-78" transform="translate(266.796875 0.015625)"/>
      <use xlink:href="#DejaVuSans-Oblique-65" transform="translate(325.976562 0.015625)"/>
      <use xlink:href="#DejaVuSans-Oblique-6c" transform="translate(387.5 0.015625)"/>
      <use xlink:href="#DejaVuSans-Oblique-65" transform="translate(415.283203 0.015625)"/>
      <use xlink:href="#DejaVuSans-Oblique-6d" transform="translate(476.806641 0.015625)"/>
      <use xlink:href="#DejaVuSans-Oblique-65" transform="translate(574.21875 0.015625)"/>
      <use xlink:href="#DejaVuSans-Oblique-6e" transform="translate(635.742188 0.015625)"/>
      <use xlink:href="#DejaVuSans-Oblique-74" transform="translate(699.121094 0.015625)"/>
     </g>
    </g>
   </g>
   <g id="line2d_29">
    <path d="M 55.084545 288.679636 
L 58.335969 260.977287 
L 61.587392 239.854705 
L 64.838815 226.45384 
L 68.090239 218.738467 
L 71.341662 214.578645 
L 74.593085 212.558444 
L 77.844509 211.841277 
L 81.095932 211.941572 
L 84.347355 212.572427 
L 87.598779 213.559208 
L 90.850202 214.792115 
L 94.101625 216.199914 
L 97.353049 217.735025 
L 100.604472 219.364818 
L 103.855895 221.066379 
L 107.107319 222.823265 
L 110.358742 224.623449 
L 113.610165 226.457983 
L 116.861589 228.3201 
L 120.113012 230.204611 
L 123.364435 232.107485 
L 126.615859 234.025553 
L 129.867282 235.956297 
L 133.118705 237.897694 
L 136.370129 239.848107 
L 139.621552 241.806196 
L 142.872975 243.770857 
L 146.124399 245.741174 
L 149.375822 247.71638 
L 152.627245 249.695829 
L 155.878669 251.678974 
L 159.130092 253.665348 
L 162.381515 255.654549 
L 165.632938 257.646232 
L 168.884362 259.640096 
L 172.135785 261.635877 
L 175.387208 263.633345 
L 178.638632 265.632293 
L 181.890055 267.63254 
L 185.141478 269.633922 
L 188.392902 271.636291 
L 191.644325 273.639513 
L 194.895748 275.643463 
L 198.147172 277.648029 
L 201.398595 279.653103 
L 204.650018 281.658585 
L 207.901442 283.664379 
L 211.152865 285.670395 
L 214.404288 287.676541 
L 217.655712 287.676541 
L 220.907135 285.670395 
L 224.158558 283.664379 
L 227.409982 281.658585 
L 230.661405 279.653103 
L 233.912828 277.648029 
L 237.164252 275.643463 
L 240.415675 273.639513 
L 243.667098 271.636291 
L 246.918522 269.633922 
L 250.169945 267.63254 
L 253.421368 265.632293 
L 256.672792 263.633345 
L 259.924215 261.635877 
L 263.175638 259.640096 
L 266.427062 257.646232 
L 269.678485 255.654549 
L 272.929908 253.665348 
L 276.181331 251.678974 
L 279.432755 249.695829 
L 282.684178 247.71638 
L 285.935601 245.741174 
L 289.187025 243.770857 
L 292.438448 241.806196 
L 295.689871 239.848107 
L 298.941295 237.897694 
L 302.192718 235.956297 
L 305.444141 234.025553 
L 308.695565 232.107485 
L 311.946988 230.204611 
L 315.198411 228.3201 
L 318.449835 226.457983 
L 321.701258 224.623449 
L 324.952681 222.823265 
L 328.204105 221.066379 
L 331.455528 219.364818 
L 334.706951 217.735025 
L 337.958375 216.199914 
L 341.209798 214.792115 
L 344.461221 213.559208 
L 347.712645 212.572427 
L 350.964068 211.941572 
L 354.215491 211.841277 
L 357.466915 212.558444 
L 360.718338 214.578645 
L 363.969761 218.738467 
L 367.221185 226.45384 
L 370.472608 239.854705 
L 373.724031 260.977287 
L 376.975455 288.679636 
" clip-path="url(#pbb49804b77)" style="fill: none; stroke: #1f77b4; stroke-width: 1.5; stroke-linecap: square"/>
   </g>
   <g id="line2d_30">
    <path d="M 55.084545 188.495409 
L 58.335969 193.004533 
L 61.587392 203.573192 
L 64.838815 215.360485 
L 68.090239 225.81298 
L 71.341662 234.360626 
L 74.593085 241.196497 
L 77.844509 246.669654 
L 81.095932 251.095793 
L 84.347355 254.721311 
L 87.598779 257.73016 
L 90.850202 260.258352 
L 94.101625 262.406898 
L 97.353049 264.251574 
L 100.604472 265.849934 
L 103.855895 267.246265 
L 107.107319 268.475074 
L 110.358742 269.563581 
L 113.610165 270.533499 
L 116.861589 271.402337 
L 120.113012 272.184345 
L 123.364435 272.891233 
L 126.615859 273.5327 
L 129.867282 274.116844 
L 133.118705 274.650469 
L 136.370129 275.139336 
L 139.621552 275.588345 
L 142.872975 276.001691 
L 146.124399 276.382979 
L 149.375822 276.735323 
L 152.627245 277.061422 
L 155.878669 277.363621 
L 159.130092 277.643962 
L 162.381515 277.904224 
L 165.632938 278.145958 
L 168.884362 278.370508 
L 172.135785 278.579029 
L 175.387208 278.7725 
L 178.638632 278.951724 
L 181.890055 279.11732 
L 185.141478 279.269692 
L 188.392902 279.408974 
L 191.644325 279.534916 
L 194.895748 279.646656 
L 198.147172 279.742238 
L 201.398595 279.817493 
L 204.650018 279.863033 
L 207.901442 279.854292 
L 211.152865 279.704541 
L 214.404288 278.798227 
L 217.655712 278.798227 
L 220.907135 279.704541 
L 224.158558 279.854292 
L 227.409982 279.863033 
L 230.661405 279.817493 
L 233.912828 279.742238 
L 237.164252 279.646656 
L 240.415675 279.534916 
L 243.667098 279.408974 
L 246.918522 279.269692 
L 250.169945 279.11732 
L 253.421368 278.951724 
L 256.672792 278.7725 
L 259.924215 278.579029 
L 263.175638 278.370508 
L 266.427062 278.145958 
L 269.678485 277.904224 
L 272.929908 277.643962 
L 276.181331 277.363621 
L 279.432755 277.061422 
L 282.684178 276.735323 
L 285.935601 276.382979 
L 289.187025 276.001691 
L 292.438448 275.588345 
L 295.689871 275.139336 
L 298.941295 274.650469 
L 302.192718 274.116844 
L 305.444141 273.5327 
L 308.695565 272.891233 
L 311.946988 272.184345 
L 315.198411 271.402337 
L 318.449835 270.533499 
L 321.701258 269.563581 
L 324.952681 268.475074 
L 328.204105 267.246265 
L 331.455528 265.849934 
L 334.706951 264.251574 
L 337.958375 262.406898 
L 341.209798 260.258352 
L 344.461221 257.73016 
L 347.712645 254.721311 
L 350.964068 251.095793 
L 354.215491 246.669654 
L 357.466915 241.196497 
L 360.718338 234.360626 
L 363.969761 225.81298 
L 367.221185 215.360485 
L 370.472608 203.573192 
L 373.724031 193.004533 
L 376.975455 188.495409 
" clip-path="url(#pbb49804b77)" style="fill: none; stroke: #ff7f0e; stroke-width: 1.5; stroke-linecap: square"/>
   </g>
   <g id="line2d_31">
    <path d="M 55.084545 288.679636 
L 58.335969 282.020832 
L 61.587392 276.866544 
L 64.838815 273.799341 
L 68.090239 272.579895 
L 71.341662 272.576772 
L 74.593085 273.170284 
L 77.844509 273.96517 
L 81.095932 274.77174 
L 84.347355 275.516942 
L 87.598779 276.18061 
L 90.850202 276.763531 
L 94.101625 277.273604 
L 97.353049 277.720285 
L 100.604472 278.112537 
L 103.855895 278.458193 
L 107.107319 278.763875 
L 110.358742 279.035103 
L 113.610165 279.276458 
L 116.861589 279.491746 
L 120.113012 279.684135 
L 123.364435 279.856274 
L 126.615859 280.010392 
L 129.867282 280.148367 
L 133.118705 280.271797 
L 136.370129 280.382043 
L 139.621552 280.480271 
L 142.872975 280.567483 
L 146.124399 280.644549 
L 149.375822 280.712221 
L 152.627245 280.771156 
L 155.878669 280.821931 
L 159.130092 280.865055 
L 162.381515 280.900981 
L 165.632938 280.930122 
L 168.884362 280.952855 
L 172.135785 280.96954 
L 175.387208 280.980535 
L 178.638632 280.98621 
L 181.890055 280.986986 
L 185.141478 280.983373 
L 188.392902 280.976047 
L 191.644325 280.965986 
L 194.895748 280.954725 
L 198.147172 280.944891 
L 201.398595 280.941462 
L 204.650018 280.955195 
L 207.901442 281.014359 
L 211.152865 281.223778 
L 214.404288 282.494949 
L 217.655712 282.494949 
L 220.907135 281.223778 
L 224.158558 281.014359 
L 227.409982 280.955195 
L 230.661405 280.941462 
L 233.912828 280.944891 
L 237.164252 280.954725 
L 240.415675 280.965986 
L 243.667098 280.976047 
L 246.918522 280.983373 
L 250.169945 280.986986 
L 253.421368 280.98621 
L 256.672792 280.980535 
L 259.924215 280.96954 
L 263.175638 280.952855 
L 266.427062 280.930122 
L 269.678485 280.900981 
L 272.929908 280.865055 
L 276.181331 280.821931 
L 279.432755 280.771156 
L 282.684178 280.712221 
L 285.935601 280.644549 
L 289.187025 280.567483 
L 292.438448 280.480271 
L 295.689871 280.382043 
L 298.941295 280.271797 
L 302.192718 280.148367 
L 305.444141 280.010392 
L 308.695565 279.856274 
L 311.946988 279.684135 
L 315.198411 279.491746 
L 318.449835 279.276458 
L 321.701258 279.035103 
L 324.952681 278.763875 
L 328.204105 278.458193 
L 331.455528 278.112537 
L 334.706951 277.720285 
L 337.958375 277.273604 
L 341.209798 276.763531 
L 344.461221 276.18061 
L 347.712645 275.516942 
L 350.964068 274.77174 
L 354.215491 273.96517 
L 357.466915 273.170284 
L 360.718338 272.576772 
L 363.969761 272.579895 
L 367.221185 273.799341 
L 370.472608 276.866544 
L 373.724031 282.020832 
L 376.975455 288.679636 
" clip-path="url(#pbb49804b77)" style="fill: none; stroke: #2ca02c; stroke-width: 1.5; stroke-linecap: square"/>
   </g>
   <g id="line2d_32">
    <path d="M 55.084545 279.802892 
L 58.335969 282.104658 
L 61.587392 286.746506 
L 64.838815 285.512402 
L 68.090239 280.686516 
L 71.341662 276.569944 
L 74.593085 273.284275 
L 77.844509 270.726066 
L 81.095932 268.727996 
L 84.347355 267.14232 
L 87.598779 265.858939 
L 90.850202 264.800113 
L 94.101625 263.911444 
L 97.353049 263.154503 
L 100.604472 262.501678 
L 103.855895 261.932736 
L 107.107319 261.432552 
L 110.358742 260.989599 
L 113.610165 260.594931 
L 116.861589 260.241486 
L 120.113012 259.923604 
L 123.364435 259.63668 
L 126.615859 259.376924 
L 129.867282 259.141177 
L 133.118705 258.926778 
L 136.370129 258.731468 
L 139.621552 258.553312 
L 142.872975 258.39064 
L 146.124399 258.242003 
L 149.375822 258.106135 
L 152.627245 257.981929 
L 155.878669 257.868409 
L 159.130092 257.764715 
L 162.381515 257.670084 
L 165.632938 257.583843 
L 168.884362 257.505392 
L 172.135785 257.4342 
L 175.387208 257.369796 
L 178.638632 257.311762 
L 181.890055 257.259728 
L 185.141478 257.21337 
L 188.392902 257.172401 
L 191.644325 257.136573 
L 194.895748 257.10567 
L 198.147172 257.079509 
L 201.398595 257.057937 
L 204.650018 257.040826 
L 207.901442 257.028079 
L 211.152865 257.019621 
L 214.404288 257.015405 
L 217.655712 257.015405 
L 220.907135 257.019621 
L 224.158558 257.028079 
L 227.409982 257.040826 
L 230.661405 257.057937 
L 233.912828 257.079509 
L 237.164252 257.10567 
L 240.415675 257.136573 
L 243.667098 257.172401 
L 246.918522 257.21337 
L 250.169945 257.259728 
L 253.421368 257.311762 
L 256.672792 257.369796 
L 259.924215 257.4342 
L 263.175638 257.505392 
L 266.427062 257.583843 
L 269.678485 257.670084 
L 272.929908 257.764715 
L 276.181331 257.868409 
L 279.432755 257.981929 
L 282.684178 258.106135 
L 285.935601 258.242003 
L 289.187025 258.39064 
L 292.438448 258.553312 
L 295.689871 258.731468 
L 298.941295 258.926778 
L 302.192718 259.141177 
L 305.444141 259.376924 
L 308.695565 259.63668 
L 311.946988 259.923604 
L 315.198411 260.241486 
L 318.449835 260.594931 
L 321.701258 260.989599 
L 324.952681 261.432552 
L 328.204105 261.932736 
L 331.455528 262.501678 
L 334.706951 263.154503 
L 337.958375 263.911444 
L 341.209798 264.800113 
L 344.461221 265.858939 
L 347.712645 267.14232 
L 350.964068 268.727996 
L 354.215491 270.726066 
L 357.466915 273.284275 
L 360.718338 276.569944 
L 363.969761 280.686516 
L 367.221185 285.512402 
L 370.472608 286.746506 
L 373.724031 282.104658 
L 376.975455 279.802892 
" clip-path="url(#pbb49804b77)" style="fill: none; stroke: #d62728; stroke-width: 1.5; stroke-linecap: square"/>
   </g>
   <g id="line2d_33">
    <path d="M 55.084545 288.679636 
L 58.335969 283.136791 
L 61.587392 280.385236 
L 64.838815 279.298004 
L 68.090239 278.911714 
L 71.341662 278.788647 
L 74.593085 278.736074 
L 77.844509 278.667291 
L 81.095932 278.542629 
L 84.347355 278.345324 
L 87.598779 278.072879 
L 90.850202 277.735758 
L 94.101625 277.358977 
L 97.353049 276.982277 
L 100.604472 276.654312 
L 103.855895 276.419714 
L 107.107319 276.305216 
L 110.358742 276.314129 
L 113.610165 276.431568 
L 116.861589 276.634385 
L 120.113012 276.899221 
L 123.364435 277.206502 
L 126.615859 277.541401 
L 129.867282 277.893329 
L 133.118705 278.255003 
L 136.370129 278.621563 
L 139.621552 278.989871 
L 142.872975 279.358006 
L 146.124399 279.724904 
L 149.375822 280.090124 
L 152.627245 280.453678 
L 155.878669 280.815924 
L 159.130092 281.177496 
L 162.381515 281.539255 
L 165.632938 281.902257 
L 168.884362 282.267732 
L 172.135785 282.637068 
L 175.387208 283.01179 
L 178.638632 283.393542 
L 181.890055 283.784047 
L 185.141478 284.185058 
L 188.392902 284.598276 
L 191.644325 285.025242 
L 194.895748 285.467189 
L 198.147172 285.924866 
L 201.398595 286.398339 
L 204.650018 286.886805 
L 207.901442 287.388464 
L 211.152865 287.900491 
L 214.404288 288.419159 
L 217.655712 288.419159 
L 220.907135 287.900491 
L 224.158558 287.388464 
L 227.409982 286.886805 
L 230.661405 286.398339 
L 233.912828 285.924866 
L 237.164252 285.467189 
L 240.415675 285.025242 
L 243.667098 284.598276 
L 246.918522 284.185058 
L 250.169945 283.784047 
L 253.421368 283.393542 
L 256.672792 283.01179 
L 259.924215 282.637068 
L 263.175638 282.267732 
L 266.427062 281.902257 
L 269.678485 281.539255 
L 272.929908 281.177496 
L 276.181331 280.815924 
L 279.432755 280.453678 
L 282.684178 280.090124 
L 285.935601 279.724904 
L 289.187025 279.358006 
L 292.438448 278.989871 
L 295.689871 278.621563 
L 298.941295 278.255003 
L 302.192718 277.893329 
L 305.444141 277.541401 
L 308.695565 277.206502 
L 311.946988 276.899221 
L 315.198411 276.634385 
L 318.449835 276.431568 
L 321.701258 276.314129 
L 324.952681 276.305216 
L 328.204105 276.419714 
L 331.455528 276.654312 
L 334.706951 276.982277 
L 337.958375 277.358977 
L 341.209798 277.735758 
L 344.461221 278.072879 
L 347.712645 278.345324 
L 350.964068 278.542629 
L 354.215491 278.667291 
L 357.466915 278.736074 
L 360.718338 278.788647 
L 363.969761 278.911714 
L 367.221185 279.298004 
L 370.472608 280.385236 
L 373.724031 283.136791 
L 376.975455 288.679636 
" clip-path="url(#pbb49804b77)" style="fill: none; stroke: #9467bd; stroke-width: 1.5; stroke-linecap: square"/>
   </g>
   <g id="line2d_34">
    <path d="M 55.084545 288.679636 
L 58.335969 256.947104 
L 61.587392 231.794368 
L 64.838815 214.363399 
L 68.090239 202.618003 
L 71.341662 194.428263 
L 74.593085 188.378277 
L 77.844509 183.631486 
L 81.095932 179.702345 
L 84.347355 176.303981 
L 87.598779 173.261788 
L 90.850202 170.465995 
L 94.101625 167.845399 
L 97.353049 165.352451 
L 100.604472 162.954552 
L 103.855895 160.628822 
L 107.107319 158.358851 
L 110.358742 156.132649 
L 113.610165 153.941303 
L 116.861589 151.778086 
L 120.113012 149.637849 
L 123.364435 147.516604 
L 126.615859 145.411228 
L 129.867282 143.319251 
L 133.118705 141.2387 
L 136.370129 139.167994 
L 139.621552 137.105852 
L 142.872975 135.051236 
L 146.124399 133.003301 
L 149.375822 130.961359 
L 152.627245 128.924854 
L 155.878669 126.893339 
L 159.130092 124.866465 
L 162.381515 122.843968 
L 165.632938 120.825668 
L 168.884362 118.811468 
L 172.135785 116.801364 
L 175.387208 114.795462 
L 178.638632 112.794018 
L 181.890055 110.797498 
L 185.141478 108.806701 
L 188.392902 106.822982 
L 191.644325 104.848704 
L 194.895748 102.888208 
L 198.147172 100.950126 
L 201.398595 99.05362 
L 204.650018 97.248593 
L 207.901442 95.70139 
L 211.152865 95.275779 
L 214.404288 110.062443 
L 217.655712 110.062443 
L 220.907135 95.275779 
L 224.158558 95.70139 
L 227.409982 97.248593 
L 230.661405 99.05362 
L 233.912828 100.950126 
L 237.164252 102.888208 
L 240.415675 104.848704 
L 243.667098 106.822982 
L 246.918522 108.806701 
L 250.169945 110.797498 
L 253.421368 112.794018 
L 256.672792 114.795462 
L 259.924215 116.801364 
L 263.175638 118.811468 
L 266.427062 120.825668 
L 269.678485 122.843968 
L 272.929908 124.866465 
L 276.181331 126.893339 
L 279.432755 128.924854 
L 282.684178 130.961359 
L 285.935601 133.003301 
L 289.187025 135.051236 
L 292.438448 137.105852 
L 295.689871 139.167994 
L 298.941295 141.2387 
L 302.192718 143.319251 
L 305.444141 145.411228 
L 308.695565 147.516604 
L 311.946988 149.637849 
L 315.198411 151.778086 
L 318.449835 153.941303 
L 321.701258 156.132649 
L 324.952681 158.358851 
L 328.204105 160.628822 
L 331.455528 162.954552 
L 334.706951 165.352451 
L 337.958375 167.845399 
L 341.209798 170.465995 
L 344.461221 173.261788 
L 347.712645 176.303981 
L 350.964068 179.702345 
L 354.215491 183.631486 
L 357.466915 188.378277 
L 360.718338 194.428263 
L 363.969761 202.618003 
L 367.221185 214.363399 
L 370.472608 231.794368 
L 373.724031 256.947104 
L 376.975455 288.679636 
" clip-path="url(#pbb49804b77)" style="fill: none; stroke: #8c564b; stroke-width: 1.5; stroke-linecap: square"/>
   </g>
   <g id="line2d_35">
    <path d="M 55.084545 251.911154 
L 58.335969 253.049836 
L 61.587392 256.106101 
L 64.838815 260.323657 
L 68.090239 264.878133 
L 71.341662 269.061254 
L 74.593085 272.513083 
L 77.844509 275.20949 
L 81.095932 277.278428 
L 84.347355 278.869148 
L 87.598779 280.105434 
L 90.850202 281.079426 
L 94.101625 281.857336 
L 97.353049 282.486457 
L 100.604472 283.000799 
L 103.855895 283.425104 
L 107.107319 283.77762 
L 110.358742 284.07198 
L 113.610165 284.318496 
L 116.861589 284.525048 
L 120.113012 284.697707 
L 123.364435 284.841173 
L 126.615859 284.959087 
L 129.867282 285.054256 
L 133.118705 285.128816 
L 136.370129 285.184343 
L 139.621552 285.221935 
L 142.872975 285.242263 
L 146.124399 285.245598 
L 149.375822 285.231819 
L 152.627245 285.200395 
L 155.878669 285.150348 
L 159.130092 285.080186 
L 162.381515 284.987795 
L 165.632938 284.870288 
L 168.884362 284.72377 
L 172.135785 284.543003 
L 175.387208 284.3209 
L 178.638632 284.047742 
L 181.890055 283.709959 
L 185.141478 283.28812 
L 188.392902 282.753519 
L 191.644325 282.062021 
L 194.895748 281.142248 
L 198.147172 279.870932 
L 201.398595 278.015602 
L 204.650018 275.07998 
L 207.901442 269.784505 
L 211.152865 257.547357 
L 214.404288 203.408995 
L 217.655712 203.408995 
L 220.907135 257.547357 
L 224.158558 269.784505 
L 227.409982 275.07998 
L 230.661405 278.015602 
L 233.912828 279.870932 
L 237.164252 281.142248 
L 240.415675 282.062021 
L 243.667098 282.753519 
L 246.918522 283.28812 
L 250.169945 283.709959 
L 253.421368 284.047742 
L 256.672792 284.3209 
L 259.924215 284.543003 
L 263.175638 284.72377 
L 266.427062 284.870288 
L 269.678485 284.987795 
L 272.929908 285.080186 
L 276.181331 285.150348 
L 279.432755 285.200395 
L 282.684178 285.231819 
L 285.935601 285.245598 
L 289.187025 285.242263 
L 292.438448 285.221935 
L 295.689871 285.184343 
L 298.941295 285.128816 
L 302.192718 285.054256 
L 305.444141 284.959087 
L 308.695565 284.841173 
L 311.946988 284.697707 
L 315.198411 284.525048 
L 318.449835 284.318496 
L 321.701258 284.07198 
L 324.952681 283.77762 
L 328.204105 283.425104 
L 331.455528 283.000799 
L 334.706951 282.486457 
L 337.958375 281.857336 
L 341.209798 281.079426 
L 344.461221 280.105434 
L 347.712645 278.869148 
L 350.964068 277.278428 
L 354.215491 275.20949 
L 357.466915 272.513083 
L 360.718338 269.061254 
L 363.969761 264.878133 
L 367.221185 260.323657 
L 370.472608 256.106101 
L 373.724031 253.049836 
L 376.975455 251.911154 
" clip-path="url(#pbb49804b77)" style="fill: none; stroke: #e377c2; stroke-width: 1.5; stroke-linecap: square"/>
   </g>
   <g id="line2d_36">
    <path d="M 55.084545 288.679636 
L 58.335969 277.894035 
L 61.587392 270.641765 
L 64.838815 265.667373 
L 68.090239 262.301042 
L 71.341662 260.289128 
L 74.593085 259.286365 
L 77.844509 258.926414 
L 81.095932 258.938219 
L 84.347355 259.154663 
L 87.598779 259.480016 
L 90.850202 259.860508 
L 94.101625 260.265816 
L 97.353049 260.678634 
L 100.604472 261.088949 
L 103.855895 261.490917 
L 107.107319 261.881119 
L 110.358742 262.257573 
L 113.610165 262.619168 
L 116.861589 262.965328 
L 120.113012 263.295806 
L 123.364435 263.610565 
L 126.615859 263.909699 
L 129.867282 264.193388 
L 133.118705 264.461862 
L 136.370129 264.715388 
L 139.621552 264.954251 
L 142.872975 265.178749 
L 146.124399 265.389187 
L 149.375822 265.585873 
L 152.627245 265.76912 
L 155.878669 265.939244 
L 159.130092 266.09657 
L 162.381515 266.241431 
L 165.632938 266.374184 
L 168.884362 266.495216 
L 172.135785 266.604966 
L 175.387208 266.703951 
L 178.638632 266.792811 
L 181.890055 266.872378 
L 185.141478 266.94379 
L 188.392902 267.008691 
L 191.644325 267.069581 
L 194.895748 267.130509 
L 198.147172 267.198518 
L 201.398595 267.287035 
L 204.650018 267.425132 
L 207.901442 267.689228 
L 211.152865 268.362617 
L 214.404288 271.908413 
L 217.655712 271.908413 
L 220.907135 268.362617 
L 224.158558 267.689228 
L 227.409982 267.425132 
L 230.661405 267.287035 
L 233.912828 267.198518 
L 237.164252 267.130509 
L 240.415675 267.069581 
L 243.667098 267.008691 
L 246.918522 266.94379 
L 250.169945 266.872378 
L 253.421368 266.792811 
L 256.672792 266.703951 
L 259.924215 266.604966 
L 263.175638 266.495216 
L 266.427062 266.374184 
L 269.678485 266.241431 
L 272.929908 266.09657 
L 276.181331 265.939244 
L 279.432755 265.76912 
L 282.684178 265.585873 
L 285.935601 265.389187 
L 289.187025 265.178749 
L 292.438448 264.954251 
L 295.689871 264.715388 
L 298.941295 264.461862 
L 302.192718 264.193388 
L 305.444141 263.909699 
L 308.695565 263.610565 
L 311.946988 263.295806 
L 315.198411 262.965328 
L 318.449835 262.619168 
L 321.701258 262.257573 
L 324.952681 261.881119 
L 328.204105 261.490917 
L 331.455528 261.088949 
L 334.706951 260.678634 
L 337.958375 260.265816 
L 341.209798 259.860508 
L 344.461221 259.480016 
L 347.712645 259.154663 
L 350.964068 258.938219 
L 354.215491 258.926414 
L 357.466915 259.286365 
L 360.718338 260.289128 
L 363.969761 262.301042 
L 367.221185 265.667373 
L 370.472608 270.641765 
L 373.724031 277.894035 
L 376.975455 288.679636 
" clip-path="url(#pbb49804b77)" style="fill: none; stroke: #7f7f7f; stroke-width: 1.5; stroke-linecap: square"/>
   </g>
   <g id="line2d_37">
    <path d="M 55.084545 272.986385 
L 58.335969 275.507547 
L 61.587392 279.679014 
L 64.838815 283.229748 
L 68.090239 286.048446 
L 71.341662 288.34481 
L 74.593085 287.051509 
L 77.844509 285.283562 
L 81.095932 283.611039 
L 84.347355 281.961619 
L 87.598779 280.284779 
L 90.850202 278.552491 
L 94.101625 276.764394 
L 97.353049 274.952806 
L 100.604472 273.179621 
L 103.855895 271.519254 
L 107.107319 270.033263 
L 110.358742 268.752309 
L 113.610165 267.675222 
L 116.861589 266.780203 
L 120.113012 266.037603 
L 123.364435 265.418354 
L 126.615859 264.897706 
L 129.867282 264.456038 
L 133.118705 264.078361 
L 136.370129 263.75343 
L 139.621552 263.472887 
L 142.872975 263.23056 
L 146.124399 263.02193 
L 149.375822 262.843738 
L 152.627245 262.69372 
L 155.878669 262.570407 
L 159.130092 262.473005 
L 162.381515 262.401306 
L 165.632938 262.355639 
L 168.884362 262.336837 
L 172.135785 262.346223 
L 175.387208 262.385586 
L 178.638632 262.45715 
L 181.890055 262.563505 
L 185.141478 262.707461 
L 188.392902 262.891784 
L 191.644325 263.118698 
L 194.895748 263.388993 
L 198.147172 263.700332 
L 201.398595 264.043766 
L 204.650018 264.395244 
L 207.901442 264.68905 
L 211.152865 264.695148 
L 214.404288 262.804818 
L 217.655712 262.804818 
L 220.907135 264.695148 
L 224.158558 264.68905 
L 227.409982 264.395244 
L 230.661405 264.043766 
L 233.912828 263.700332 
L 237.164252 263.388993 
L 240.415675 263.118698 
L 243.667098 262.891784 
L 246.918522 262.707461 
L 250.169945 262.563505 
L 253.421368 262.45715 
L 256.672792 262.385586 
L 259.924215 262.346223 
L 263.175638 262.336837 
L 266.427062 262.355639 
L 269.678485 262.401306 
L 272.929908 262.473005 
L 276.181331 262.570407 
L 279.432755 262.69372 
L 282.684178 262.843738 
L 285.935601 263.02193 
L 289.187025 263.23056 
L 292.438448 263.472887 
L 295.689871 263.75343 
L 298.941295 264.078361 
L 302.192718 264.456038 
L 305.444141 264.897706 
L 308.695565 265.418354 
L 311.946988 266.037603 
L 315.198411 266.780203 
L 318.449835 267.675222 
L 321.701258 268.752309 
L 324.952681 270.033263 
L 328.204105 271.519254 
L 331.455528 273.179621 
L 334.706951 274.952806 
L 337.958375 276.764394 
L 341.209798 278.552491 
L 344.461221 280.284779 
L 347.712645 281.961619 
L 350.964068 283.611039 
L 354.215491 285.283562 
L 357.466915 287.051509 
L 360.718338 288.34481 
L 363.969761 286.048446 
L 367.221185 283.229748 
L 370.472608 279.679014 
L 373.724031 275.507547 
L 376.975455 272.986385 
" clip-path="url(#pbb49804b77)" style="fill: none; stroke: #bcbd22; stroke-width: 1.5; stroke-linecap: square"/>
   </g>
   <g id="line2d_38">
    <path d="M 55.084545 288.679636 
L 58.335969 250.407049 
L 61.587392 208.960833 
L 64.838815 164.970672 
L 68.090239 123.842304 
L 71.341662 91.122622 
L 74.593085 68.132923 
L 77.844509 53.031601 
L 81.095932 43.392832 
L 84.347355 37.330675 
L 87.598779 33.595615 
L 90.850202 31.398771 
L 94.101625 30.243715 
L 97.353049 29.813195 
L 100.604472 29.899813 
L 103.855895 30.364587 
L 107.107319 31.112077 
L 110.358742 32.075207 
L 113.610165 33.20581 
L 116.861589 34.468608 
L 120.113012 35.837298 
L 123.364435 37.291939 
L 126.615859 38.817189 
L 129.867282 40.401081 
L 133.118705 42.034165 
L 136.370129 43.708895 
L 139.621552 45.419181 
L 142.872975 47.160066 
L 146.124399 48.927476 
L 149.375822 50.718045 
L 152.627245 52.52897 
L 155.878669 54.357906 
L 159.130092 56.202889 
L 162.381515 58.062268 
L 165.632938 59.934665 
L 168.884362 61.81894 
L 172.135785 63.714176 
L 175.387208 65.619671 
L 178.638632 67.534964 
L 181.890055 69.459881 
L 185.141478 71.394641 
L 188.392902 73.340074 
L 191.644325 75.298062 
L 194.895748 77.272503 
L 198.147172 79.271615 
L 201.398595 81.314173 
L 204.650018 83.449715 
L 207.901442 85.844235 
L 211.152865 89.361162 
L 214.404288 108.09085 
L 217.655712 108.09085 
L 220.907135 89.361162 
L 224.158558 85.844235 
L 227.409982 83.449715 
L 230.661405 81.314173 
L 233.912828 79.271615 
L 237.164252 77.272503 
L 240.415675 75.298062 
L 243.667098 73.340074 
L 246.918522 71.394641 
L 250.169945 69.459881 
L 253.421368 67.534964 
L 256.672792 65.619671 
L 259.924215 63.714176 
L 263.175638 61.81894 
L 266.427062 59.934665 
L 269.678485 58.062268 
L 272.929908 56.202889 
L 276.181331 54.357906 
L 279.432755 52.52897 
L 282.684178 50.718045 
L 285.935601 48.927476 
L 289.187025 47.160066 
L 292.438448 45.419181 
L 295.689871 43.708895 
L 298.941295 42.034165 
L 302.192718 40.401081 
L 305.444141 38.817189 
L 308.695565 37.291939 
L 311.946988 35.837298 
L 315.198411 34.468608 
L 318.449835 33.20581 
L 321.701258 32.075207 
L 324.952681 31.112077 
L 328.204105 30.364587 
L 331.455528 29.899813 
L 334.706951 29.813195 
L 337.958375 30.243715 
L 341.209798 31.398771 
L 344.461221 33.595615 
L 347.712645 37.330675 
L 350.964068 43.392832 
L 354.215491 53.031601 
L 357.466915 68.132923 
L 360.718338 91.122622 
L 363.969761 123.842304 
L 367.221185 164.970672 
L 370.472608 208.960833 
L 373.724031 250.407049 
L 376.975455 288.679636 
" clip-path="url(#pbb49804b77)" style="fill: none; stroke: #17becf; stroke-width: 1.5; stroke-linecap: square"/>
   </g>
   <g id="line2d_39">
    <path d="M 55.084545 133.785993 
L 58.335969 134.01643 
L 61.587392 132.125117 
L 64.838815 132.76945 
L 68.090239 140.620394 
L 71.341662 154.311439 
L 74.593085 169.768042 
L 77.844509 184.144548 
L 81.095932 196.415528 
L 84.347355 206.5449 
L 87.598779 214.835466 
L 90.850202 221.640613 
L 94.101625 227.270183 
L 97.353049 231.972211 
L 100.604472 235.938812 
L 103.855895 239.317379 
L 107.107319 242.221122 
L 110.358742 244.737524 
L 113.610165 246.934763 
L 116.861589 248.866467 
L 120.113012 250.575225 
L 123.364435 252.095175 
L 126.615859 253.453926 
L 129.867282 254.673998 
L 133.118705 255.773903 
L 136.370129 256.768974 
L 139.621552 257.671993 
L 142.872975 258.493689 
L 146.124399 259.243111 
L 149.375822 259.927934 
L 152.627245 260.554695 
L 155.878669 261.128978 
L 159.130092 261.655569 
L 162.381515 262.138565 
L 165.632938 262.581479 
L 168.884362 262.987296 
L 172.135785 263.358536 
L 175.387208 263.697273 
L 178.638632 264.005145 
L 181.890055 264.283324 
L 185.141478 264.532442 
L 188.392902 264.752433 
L 191.644325 264.942223 
L 194.895748 265.099118 
L 198.147172 265.217501 
L 201.398595 265.285801 
L 204.650018 265.278376 
L 207.901442 265.128617 
L 211.152865 264.602031 
L 214.404288 262.036155 
L 217.655712 262.036155 
L 220.907135 264.602031 
L 224.158558 265.128617 
L 227.409982 265.278376 
L 230.661405 265.285801 
L 233.912828 265.217501 
L 237.164252 265.099118 
L 240.415675 264.942223 
L 243.667098 264.752433 
L 246.918522 264.532442 
L 250.169945 264.283324 
L 253.421368 264.005145 
L 256.672792 263.697273 
L 259.924215 263.358536 
L 263.175638 262.987296 
L 266.427062 262.581479 
L 269.678485 262.138565 
L 272.929908 261.655569 
L 276.181331 261.128978 
L 279.432755 260.554695 
L 282.684178 259.927934 
L 285.935601 259.243111 
L 289.187025 258.493689 
L 292.438448 257.671993 
L 295.689871 256.768974 
L 298.941295 255.773903 
L 302.192718 254.673998 
L 305.444141 253.453926 
L 308.695565 252.095175 
L 311.946988 250.575225 
L 315.198411 248.866467 
L 318.449835 246.934763 
L 321.701258 244.737524 
L 324.952681 242.221122 
L 328.204105 239.317379 
L 331.455528 235.938812 
L 334.706951 231.972211 
L 337.958375 227.270183 
L 341.209798 221.640613 
L 344.461221 214.835466 
L 347.712645 206.5449 
L 350.964068 196.415528 
L 354.215491 184.144548 
L 357.466915 169.768042 
L 360.718338 154.311439 
L 363.969761 140.620394 
L 367.221185 132.76945 
L 370.472608 132.125117 
L 373.724031 134.01643 
L 376.975455 133.785993 
" clip-path="url(#pbb49804b77)" style="fill: none; stroke: #1f77b4; stroke-width: 1.5; stroke-linecap: square"/>
   </g>
   <g id="line2d_40">
    <path d="M 55.084545 288.679636 
L 58.335969 264.97995 
L 61.587392 260.746366 
L 64.838815 265.720869 
L 68.090239 272.632096 
L 71.341662 278.623745 
L 74.593085 283.024956 
L 77.844509 286.080214 
L 81.095932 288.215591 
L 84.347355 287.581381 
L 87.598779 286.358157 
L 90.850202 285.327863 
L 94.101625 284.406383 
L 97.353049 283.554459 
L 100.604472 282.764922 
L 103.855895 282.048935 
L 107.107319 281.42102 
L 110.358742 280.88801 
L 113.610165 280.445882 
L 116.861589 280.082697 
L 120.113012 279.783199 
L 123.364435 279.532212 
L 126.615859 279.316307 
L 129.867282 279.12426 
L 133.118705 278.946925 
L 136.370129 278.77688 
L 139.621552 278.608061 
L 142.872975 278.43542 
L 146.124399 278.254666 
L 149.375822 278.062044 
L 152.627245 277.854183 
L 155.878669 277.627966 
L 159.130092 277.380444 
L 162.381515 277.10878 
L 165.632938 276.810214 
L 168.884362 276.482067 
L 172.135785 276.12177 
L 175.387208 275.726949 
L 178.638632 275.295562 
L 181.890055 274.826114 
L 185.141478 274.317984 
L 188.392902 273.771896 
L 191.644325 273.190613 
L 194.895748 272.579999 
L 198.147172 271.950823 
L 201.398595 271.322351 
L 204.650018 270.731415 
L 207.901442 270.262742 
L 211.152865 270.201592 
L 214.404288 272.925663 
L 217.655712 272.925663 
L 220.907135 270.201592 
L 224.158558 270.262742 
L 227.409982 270.731415 
L 230.661405 271.322351 
L 233.912828 271.950823 
L 237.164252 272.579999 
L 240.415675 273.190613 
L 243.667098 273.771896 
L 246.918522 274.317984 
L 250.169945 274.826114 
L 253.421368 275.295562 
L 256.672792 275.726949 
L 259.924215 276.12177 
L 263.175638 276.482067 
L 266.427062 276.810214 
L 269.678485 277.10878 
L 272.929908 277.380444 
L 276.181331 277.627966 
L 279.432755 277.854183 
L 282.684178 278.062044 
L 285.935601 278.254666 
L 289.187025 278.43542 
L 292.438448 278.608061 
L 295.689871 278.77688 
L 298.941295 278.946925 
L 302.192718 279.12426 
L 305.444141 279.316307 
L 308.695565 279.532212 
L 311.946988 279.783199 
L 315.198411 280.082697 
L 318.449835 280.445882 
L 321.701258 280.88801 
L 324.952681 281.42102 
L 328.204105 282.048935 
L 331.455528 282.764922 
L 334.706951 283.554459 
L 337.958375 284.406383 
L 341.209798 285.327863 
L 344.461221 286.358157 
L 347.712645 287.581381 
L 350.964068 288.215591 
L 354.215491 286.080214 
L 357.466915 283.024956 
L 360.718338 278.623745 
L 363.969761 272.632096 
L 367.221185 265.720869 
L 370.472608 260.746366 
L 373.724031 264.97995 
L 376.975455 288.679636 
" clip-path="url(#pbb49804b77)" style="fill: none; stroke: #ff7f0e; stroke-width: 1.5; stroke-linecap: square"/>
   </g>
   <g id="line2d_41">
    <path d="M 55.084545 288.679636 
L 58.335969 174.243885 
L 61.587392 150.069272 
L 64.838815 167.026665 
L 68.090239 194.618512 
L 71.341662 219.519872 
L 74.593085 237.602989 
L 77.844509 249.492943 
L 81.095932 257.008568 
L 84.347355 261.70022 
L 87.598779 264.617205 
L 90.850202 266.421715 
L 94.101625 267.526093 
L 97.353049 268.189449 
L 100.604472 268.577482 
L 103.855895 268.798224 
L 107.107319 268.923393 
L 110.358742 269.001311 
L 113.610165 269.064879 
L 116.861589 269.13661 
L 120.113012 269.231878 
L 123.364435 269.361061 
L 126.615859 269.530991 
L 129.867282 269.745948 
L 133.118705 270.008355 
L 136.370129 270.319283 
L 139.621552 270.678809 
L 142.872975 271.086277 
L 146.124399 271.540502 
L 149.375822 272.039912 
L 152.627245 272.582657 
L 155.878669 273.1667 
L 159.130092 273.789875 
L 162.381515 274.449934 
L 165.632938 275.144589 
L 168.884362 275.871533 
L 172.135785 276.628464 
L 175.387208 277.413097 
L 178.638632 278.223173 
L 181.890055 279.056468 
L 185.141478 279.910797 
L 188.392902 280.784012 
L 191.644325 281.674003 
L 194.895748 282.5787 
L 198.147172 283.496066 
L 201.398595 284.424094 
L 204.650018 285.360808 
L 207.901442 286.304253 
L 211.152865 287.252493 
L 214.404288 288.203603 
L 217.655712 288.203603 
L 220.907135 287.252493 
L 224.158558 286.304253 
L 227.409982 285.360808 
L 230.661405 284.424094 
L 233.912828 283.496066 
L 237.164252 282.5787 
L 240.415675 281.674003 
L 243.667098 280.784012 
L 246.918522 279.910797 
L 250.169945 279.056468 
L 253.421368 278.223173 
L 256.672792 277.413097 
L 259.924215 276.628464 
L 263.175638 275.871533 
L 266.427062 275.144589 
L 269.678485 274.449934 
L 272.929908 273.789875 
L 276.181331 273.1667 
L 279.432755 272.582657 
L 282.684178 272.039912 
L 285.935601 271.540502 
L 289.187025 271.086277 
L 292.438448 270.678809 
L 295.689871 270.319283 
L 298.941295 270.008355 
L 302.192718 269.745948 
L 305.444141 269.530991 
L 308.695565 269.361061 
L 311.946988 269.231878 
L 315.198411 269.13661 
L 318.449835 269.064879 
L 321.701258 269.001311 
L 324.952681 268.923393 
L 328.204105 268.798224 
L 331.455528 268.577482 
L 334.706951 268.189449 
L 337.958375 267.526093 
L 341.209798 266.421715 
L 344.461221 264.617205 
L 347.712645 261.70022 
L 350.964068 257.008568 
L 354.215491 249.492943 
L 357.466915 237.602989 
L 360.718338 219.519872 
L 363.969761 194.618512 
L 367.221185 167.026665 
L 370.472608 150.069272 
L 373.724031 174.243885 
L 376.975455 288.679636 
" clip-path="url(#pbb49804b77)" style="fill: none; stroke: #2ca02c; stroke-width: 1.5; stroke-linecap: square"/>
   </g>
   <g id="line2d_42">
    <path d="M 55.084545 42.084091 
L 58.335969 85.242846 
L 61.587392 137.467746 
L 64.838815 167.534392 
L 68.090239 184.790568 
L 71.341662 195.671644 
L 74.593085 202.958109 
L 77.844509 207.845895 
L 81.095932 210.933025 
L 84.347355 212.574182 
L 87.598779 213.017125 
L 90.850202 212.477077 
L 94.101625 211.18969 
L 97.353049 209.441028 
L 100.604472 207.556636 
L 103.855895 205.843237 
L 107.107319 204.515117 
L 110.358742 203.658138 
L 113.610165 203.250642 
L 116.861589 203.21328 
L 120.113012 203.452545 
L 123.364435 203.884549 
L 126.615859 204.442821 
L 129.867282 205.077856 
L 133.118705 205.753829 
L 136.370129 206.445042 
L 139.621552 207.13299 
L 142.872975 207.804182 
L 146.124399 208.448602 
L 149.375822 209.05865 
L 152.627245 209.62842 
L 155.878669 210.153218 
L 159.130092 210.629244 
L 162.381515 211.053397 
L 165.632938 211.423171 
L 168.884362 211.736623 
L 172.135785 211.992415 
L 175.387208 212.189914 
L 178.638632 212.329357 
L 181.890055 212.412081 
L 185.141478 212.440793 
L 188.392902 212.419884 
L 191.644325 212.35572 
L 194.895748 212.256856 
L 198.147172 212.134068 
L 201.398595 212.000089 
L 204.650018 211.868928 
L 207.901442 211.754744 
L 211.152865 211.670333 
L 214.404288 211.625472 
L 217.655712 211.625472 
L 220.907135 211.670333 
L 224.158558 211.754744 
L 227.409982 211.868928 
L 230.661405 212.000089 
L 233.912828 212.134068 
L 237.164252 212.256856 
L 240.415675 212.35572 
L 243.667098 212.419884 
L 246.918522 212.440793 
L 250.169945 212.412081 
L 253.421368 212.329357 
L 256.672792 212.189914 
L 259.924215 211.992415 
L 263.175638 211.736623 
L 266.427062 211.423171 
L 269.678485 211.053397 
L 272.929908 210.629244 
L 276.181331 210.153218 
L 279.432755 209.62842 
L 282.684178 209.05865 
L 285.935601 208.448602 
L 289.187025 207.804182 
L 292.438448 207.13299 
L 295.689871 206.445042 
L 298.941295 205.753829 
L 302.192718 205.077856 
L 305.444141 204.442821 
L 308.695565 203.884549 
L 311.946988 203.452545 
L 315.198411 203.21328 
L 318.449835 203.250642 
L 321.701258 203.658138 
L 324.952681 204.515117 
L 328.204105 205.843237 
L 331.455528 207.556636 
L 334.706951 209.441028 
L 337.958375 211.18969 
L 341.209798 212.477077 
L 344.461221 213.017125 
L 347.712645 212.574182 
L 350.964068 210.933025 
L 354.215491 207.845895 
L 357.466915 202.958109 
L 360.718338 195.671644 
L 363.969761 184.790568 
L 367.221185 167.534392 
L 370.472608 137.467746 
L 373.724031 85.242846 
L 376.975455 42.084091 
" clip-path="url(#pbb49804b77)" style="fill: none; stroke: #d62728; stroke-width: 1.5; stroke-linecap: square"/>
   </g>
   <g id="line2d_43">
    <path d="M 55.084545 288.679636 
L 58.335969 136.422867 
L 61.587392 71.359879 
L 64.838815 45.106795 
L 68.090239 32.706756 
L 71.341662 26.547513 
L 74.593085 24.032364 
L 77.844509 24.212348 
L 81.095932 26.816847 
L 84.347355 31.914309 
L 87.598779 39.743944 
L 90.850202 50.5609 
L 94.101625 64.426608 
L 97.353049 80.95556 
L 100.604472 99.151985 
L 103.855895 117.537213 
L 107.107319 134.597739 
L 110.358742 149.269525 
L 113.610165 161.133453 
L 116.861589 170.293371 
L 120.113012 177.132834 
L 123.364435 182.115686 
L 126.615859 185.676375 
L 129.867282 188.178824 
L 133.118705 189.911861 
L 136.370129 191.09936 
L 139.621552 191.913952 
L 142.872975 192.489786 
L 146.124399 192.932986 
L 149.375822 193.329781 
L 152.627245 193.752703 
L 155.878669 194.265298 
L 159.130092 194.925741 
L 162.381515 195.789659 
L 165.632938 196.912363 
L 168.884362 198.3506 
L 172.135785 200.163895 
L 175.387208 202.415422 
L 178.638632 205.172305 
L 181.890055 208.505137 
L 185.141478 212.486401 
L 188.392902 217.187435 
L 191.644325 222.673506 
L 194.895748 228.996731 
L 198.147172 236.18685 
L 201.398595 244.240505 
L 204.650018 253.110552 
L 207.901442 262.697909 
L 211.152865 272.848972 
L 214.404288 283.361245 
L 217.655712 283.361245 
L 220.907135 272.848972 
L 224.158558 262.697909 
L 227.409982 253.110552 
L 230.661405 244.240505 
L 233.912828 236.18685 
L 237.164252 228.996731 
L 240.415675 222.673506 
L 243.667098 217.187435 
L 246.918522 212.486401 
L 250.169945 208.505137 
L 253.421368 205.172305 
L 256.672792 202.415422 
L 259.924215 200.163895 
L 263.175638 198.3506 
L 266.427062 196.912363 
L 269.678485 195.789659 
L 272.929908 194.925741 
L 276.181331 194.265298 
L 279.432755 193.752703 
L 282.684178 193.329781 
L 285.935601 192.932986 
L 289.187025 192.489786 
L 292.438448 191.913952 
L 295.689871 191.09936 
L 298.941295 189.911861 
L 302.192718 188.178824 
L 305.444141 185.676375 
L 308.695565 182.115686 
L 311.946988 177.132834 
L 315.198411 170.293371 
L 318.449835 161.133453 
L 321.701258 149.269525 
L 324.952681 134.597739 
L 328.204105 117.537213 
L 331.455528 99.151985 
L 334.706951 80.95556 
L 337.958375 64.426608 
L 341.209798 50.5609 
L 344.461221 39.743944 
L 347.712645 31.914309 
L 350.964068 26.816847 
L 354.215491 24.212348 
L 357.466915 24.032364 
L 360.718338 26.547513 
L 363.969761 32.706756 
L 367.221185 45.106795 
L 370.472608 71.359879 
L 373.724031 136.422867 
L 376.975455 288.679636 
" clip-path="url(#pbb49804b77)" style="fill: none; stroke: #9467bd; stroke-width: 1.5; stroke-linecap: square"/>
   </g>
   <g id="patch_3">
    <path d="M 38.99 301.912 
L 38.99 10.8 
" style="fill: none; stroke: #000000; stroke-width: 0.8; stroke-linejoin: miter; stroke-linecap: square"/>
   </g>
   <g id="patch_4">
    <path d="M 393.07 301.912 
L 393.07 10.8 
" style="fill: none; stroke: #000000; stroke-width: 0.8; stroke-linejoin: miter; stroke-linecap: square"/>
   </g>
   <g id="patch_5">
    <path d="M 38.99 301.912 
L 393.07 301.912 
" style="fill: none; stroke: #000000; stroke-width: 0.8; stroke-linejoin: miter; stroke-linecap: square"/>
   </g>
   <g id="patch_6">
    <path d="M 38.99 10.8 
L 393.07 10.8 
" style="fill: none; stroke: #000000; stroke-width: 0.8; stroke-linejoin: miter; stroke-linecap: square"/>
   </g>
   <g id="legend_1">
    <g id="patch_7">
     <path d="M 400.07 267.941937 
L 447.973125 267.941937 
Q 449.973125 267.941937 449.973125 265.941937 
L 449.973125 46.770062 
Q 449.973125 44.770062 447.973125 44.770062 
L 400.07 44.770062 
Q 398.07 44.770062 398.07 46.770062 
L 398.07 265.941937 
Q 398.07 267.941937 400.07 267.941937 
z
" style="fill: #ffffff; opacity: 0.8; stroke: #cccccc; stroke-linejoin: miter"/>
    </g>
    <g id="line2d_44">
     <path d="M 402.07 52.8685 
L 412.07 52.8685 
L 422.07 52.8685 
" style="fill: none; stroke: #1f77b4; stroke-width: 1.5; stroke-linecap: square"/>
    </g>
    <g id="text_17">
     <!-- 0,0 -->
     <g transform="translate(430.07 56.3685) scale(0.1 -0.1)">
      <defs>
       <path id="DejaVuSans-2c" d="M 750 794 
L 1409 794 
L 1409 256 
L 897 -744 
L 494 -744 
L 750 256 
L 750 794 
z
" transform="scale(0.015625)"/>
      </defs>
      <use xlink:href="#DejaVuSans-30"/>
      <use xlink:href="#DejaVuSans-2c" transform="translate(63.623047 0)"/>
      <use xlink:href="#DejaVuSans-30" transform="translate(95.410156 0)"/>
     </g>
    </g>
    <g id="line2d_45">
     <path d="M 402.07 67.546625 
L 412.07 67.546625 
L 422.07 67.546625 
" style="fill: none; stroke: #ff7f0e; stroke-width: 1.5; stroke-linecap: square"/>
    </g>
    <g id="text_18">
     <!-- 0,1 -->
     <g transform="translate(430.07 71.046625) scale(0.1 -0.1)">
      <use xlink:href="#DejaVuSans-30"/>
      <use xlink:href="#DejaVuSans-2c" transform="translate(63.623047 0)"/>
      <use xlink:href="#DejaVuSans-31" transform="translate(95.410156 0)"/>
     </g>
    </g>
    <g id="line2d_46">
     <path d="M 402.07 82.22475 
L 412.07 82.22475 
L 422.07 82.22475 
" style="fill: none; stroke: #2ca02c; stroke-width: 1.5; stroke-linecap: square"/>
    </g>
    <g id="text_19">
     <!-- 0,2 -->
     <g transform="translate(430.07 85.72475) scale(0.1 -0.1)">
      <use xlink:href="#DejaVuSans-30"/>
      <use xlink:href="#DejaVuSans-2c" transform="translate(63.623047 0)"/>
      <use xlink:href="#DejaVuSans-32" transform="translate(95.410156 0)"/>
     </g>
    </g>
    <g id="line2d_47">
     <path d="M 402.07 96.902875 
L 412.07 96.902875 
L 422.07 96.902875 
" style="fill: none; stroke: #d62728; stroke-width: 1.5; stroke-linecap: square"/>
    </g>
    <g id="text_20">
     <!-- 0,3 -->
     <g transform="translate(430.07 100.402875) scale(0.1 -0.1)">
      <use xlink:href="#DejaVuSans-30"/>
      <use xlink:href="#DejaVuSans-2c" transform="translate(63.623047 0)"/>
      <use xlink:href="#DejaVuSans-33" transform="translate(95.410156 0)"/>
     </g>
    </g>
    <g id="line2d_48">
     <path d="M 402.07 111.581 
L 412.07 111.581 
L 422.07 111.581 
" style="fill: none; stroke: #9467bd; stroke-width: 1.5; stroke-linecap: square"/>
    </g>
    <g id="text_21">
     <!-- 0,4 -->
     <g transform="translate(430.07 115.081) scale(0.1 -0.1)">
      <use xlink:href="#DejaVuSans-30"/>
      <use xlink:href="#DejaVuSans-2c" transform="translate(63.623047 0)"/>
      <use xlink:href="#DejaVuSans-34" transform="translate(95.410156 0)"/>
     </g>
    </g>
    <g id="line2d_49">
     <path d="M 402.07 126.259125 
L 412.07 126.259125 
L 422.07 126.259125 
" style="fill: none; stroke: #8c564b; stroke-width: 1.5; stroke-linecap: square"/>
    </g>
    <g id="text_22">
     <!-- 1,1 -->
     <g transform="translate(430.07 129.759125) scale(0.1 -0.1)">
      <use xlink:href="#DejaVuSans-31"/>
      <use xlink:href="#DejaVuSans-2c" transform="translate(63.623047 0)"/>
      <use xlink:href="#DejaVuSans-31" transform="translate(95.410156 0)"/>
     </g>
    </g>
    <g id="line2d_50">
     <path d="M 402.07 140.93725 
L 412.07 140.93725 
L 422.07 140.93725 
" style="fill: none; stroke: #e377c2; stroke-width: 1.5; stroke-linecap: square"/>
    </g>
    <g id="text_23">
     <!-- 1,2 -->
     <g transform="translate(430.07 144.43725) scale(0.1 -0.1)">
      <use xlink:href="#DejaVuSans-31"/>
      <use xlink:href="#DejaVuSans-2c" transform="translate(63.623047 0)"/>
      <use xlink:href="#DejaVuSans-32" transform="translate(95.410156 0)"/>
     </g>
    </g>
    <g id="line2d_51">
     <path d="M 402.07 155.615375 
L 412.07 155.615375 
L 422.07 155.615375 
" style="fill: none; stroke: #7f7f7f; stroke-width: 1.5; stroke-linecap: square"/>
    </g>
    <g id="text_24">
     <!-- 1,3 -->
     <g transform="translate(430.07 159.115375) scale(0.1 -0.1)">
      <use xlink:href="#DejaVuSans-31"/>
      <use xlink:href="#DejaVuSans-2c" transform="translate(63.623047 0)"/>
      <use xlink:href="#DejaVuSans-33" transform="translate(95.410156 0)"/>
     </g>
    </g>
    <g id="line2d_52">
     <path d="M 402.07 170.2935 
L 412.07 170.2935 
L 422.07 170.2935 
" style="fill: none; stroke: #bcbd22; stroke-width: 1.5; stroke-linecap: square"/>
    </g>
    <g id="text_25">
     <!-- 1,4 -->
     <g transform="translate(430.07 173.7935) scale(0.1 -0.1)">
      <use xlink:href="#DejaVuSans-31"/>
      <use xlink:href="#DejaVuSans-2c" transform="translate(63.623047 0)"/>
      <use xlink:href="#DejaVuSans-34" transform="translate(95.410156 0)"/>
     </g>
    </g>
    <g id="line2d_53">
     <path d="M 402.07 184.971625 
L 412.07 184.971625 
L 422.07 184.971625 
" style="fill: none; stroke: #17becf; stroke-width: 1.5; stroke-linecap: square"/>
    </g>
    <g id="text_26">
     <!-- 2,2 -->
     <g transform="translate(430.07 188.471625) scale(0.1 -0.1)">
      <use xlink:href="#DejaVuSans-32"/>
      <use xlink:href="#DejaVuSans-2c" transform="translate(63.623047 0)"/>
      <use xlink:href="#DejaVuSans-32" transform="translate(95.410156 0)"/>
     </g>
    </g>
    <g id="line2d_54">
     <path d="M 402.07 199.64975 
L 412.07 199.64975 
L 422.07 199.64975 
" style="fill: none; stroke: #1f77b4; stroke-width: 1.5; stroke-linecap: square"/>
    </g>
    <g id="text_27">
     <!-- 2,3 -->
     <g transform="translate(430.07 203.14975) scale(0.1 -0.1)">
      <use xlink:href="#DejaVuSans-32"/>
      <use xlink:href="#DejaVuSans-2c" transform="translate(63.623047 0)"/>
      <use xlink:href="#DejaVuSans-33" transform="translate(95.410156 0)"/>
     </g>
    </g>
    <g id="line2d_55">
     <path d="M 402.07 214.327875 
L 412.07 214.327875 
L 422.07 214.327875 
" style="fill: none; stroke: #ff7f0e; stroke-width: 1.5; stroke-linecap: square"/>
    </g>
    <g id="text_28">
     <!-- 2,4 -->
     <g transform="translate(430.07 217.827875) scale(0.1 -0.1)">
      <use xlink:href="#DejaVuSans-32"/>
      <use xlink:href="#DejaVuSans-2c" transform="translate(63.623047 0)"/>
      <use xlink:href="#DejaVuSans-34" transform="translate(95.410156 0)"/>
     </g>
    </g>
    <g id="line2d_56">
     <path d="M 402.07 229.006 
L 412.07 229.006 
L 422.07 229.006 
" style="fill: none; stroke: #2ca02c; stroke-width: 1.5; stroke-linecap: square"/>
    </g>
    <g id="text_29">
     <!-- 3,3 -->
     <g transform="translate(430.07 232.506) scale(0.1 -0.1)">
      <use xlink:href="#DejaVuSans-33"/>
      <use xlink:href="#DejaVuSans-2c" transform="translate(63.623047 0)"/>
      <use xlink:href="#DejaVuSans-33" transform="translate(95.410156 0)"/>
     </g>
    </g>
    <g id="line2d_57">
     <path d="M 402.07 243.684125 
L 412.07 243.684125 
L 422.07 243.684125 
" style="fill: none; stroke: #d62728; stroke-width: 1.5; stroke-linecap: square"/>
    </g>
    <g id="text_30">
     <!-- 3,4 -->
     <g transform="translate(430.07 247.184125) scale(0.1 -0.1)">
      <use xlink:href="#DejaVuSans-33"/>
      <use xlink:href="#DejaVuSans-2c" transform="translate(63.623047 0)"/>
      <use xlink:href="#DejaVuSans-34" transform="translate(95.410156 0)"/>
     </g>
    </g>
    <g id="line2d_58">
     <path d="M 402.07 258.36225 
L 412.07 258.36225 
L 422.07 258.36225 
" style="fill: none; stroke: #9467bd; stroke-width: 1.5; stroke-linecap: square"/>
    </g>
    <g id="text_31">
     <!-- 4,4 -->
     <g transform="translate(430.07 261.86225) scale(0.1 -0.1)">
      <use xlink:href="#DejaVuSans-34"/>
      <use xlink:href="#DejaVuSans-2c" transform="translate(63.623047 0)"/>
      <use xlink:href="#DejaVuSans-34" transform="translate(95.410156 0)"/>
     </g>
    </g>
   </g>
  </g>
 </g>
 <defs>
  <clipPath id="pbb49804b77">
   <rect x="38.99" y="10.8" width="354.08" height="291.112"/>
  </clipPath>
 </defs>
</svg>
